<?xml version="1.0" encoding="UTF-8"?>
<svg id="Capa_2" data-name="Capa 2" xmlns="http://www.w3.org/2000/svg" viewBox="0 0 587.79 155.8">
  <defs>
    <style>
      .cls-1 {
        fill: #706f6f;
      }

      .cls-2 {
        fill: #be1622;
      }

      .cls-2, .cls-3 {
        fill-rule: evenodd;
      }

      .cls-3 {
        fill: #fcea10;
      }
    </style>
  </defs>
  <g id="Capa_1-2" data-name="Capa 1">
    <path class="cls-3" d="M5.52,42C17.87,16.2,58.52,0,58.52,0l20,7-5,20s-43.36,12.85-54,33c0,0-13.54-.45-14-18Z"/>
    <path class="cls-2" d="M3.52,47s4.3,47.96,111-14l19,34s-55.79,47.69-109,30c0,0-35.63-16.71-21-50Z"/>
    <path class="cls-2" d="M165.52,79S48.57,157.73,24.52,100c0,0-15.24,46.98,28,55,0,0,68.55,10.06,140-41l5-27-32-8Z"/>
    <g>
      <path class="cls-1" d="M229.86,90c-1.87.67-5.57,1.78-9.94,1.78-4.9,0-8.93-1.25-12.1-4.27-2.78-2.69-4.51-7.01-4.51-12.05.05-9.65,6.67-16.71,17.52-16.71,3.74,0,6.67.82,8.06,1.49l-1.01,3.41c-1.73-.77-3.89-1.39-7.15-1.39-7.87,0-13.01,4.9-13.01,13.01s4.94,13.06,12.48,13.06c2.74,0,4.61-.38,5.57-.86v-9.65h-6.58v-3.36h10.66v15.55Z"/>
      <path class="cls-1" d="M241.47,81.26l-3.36,10.18h-4.32l10.99-32.35h5.04l11.04,32.35h-4.46l-3.46-10.18h-11.47ZM252.08,78l-3.17-9.31c-.72-2.11-1.2-4.03-1.68-5.9h-.1c-.48,1.92-1.01,3.89-1.63,5.86l-3.17,9.36h9.75Z"/>
      <path class="cls-1" d="M265.62,59.52c2.11-.43,5.14-.67,8.02-.67,4.46,0,7.34.82,9.36,2.64,1.63,1.44,2.54,3.65,2.54,6.14,0,4.27-2.69,7.1-6.1,8.26v.14c2.5.86,3.98,3.17,4.75,6.53,1.06,4.51,1.82,7.63,2.5,8.88h-4.32c-.53-.91-1.25-3.7-2.16-7.73-.96-4.46-2.69-6.14-6.48-6.29h-3.94v14.02h-4.18v-31.92ZM269.79,74.25h4.27c4.46,0,7.3-2.45,7.3-6.14,0-4.18-3.02-6-7.44-6.05-2.02,0-3.46.19-4.13.38v11.81Z"/>
      <path class="cls-1" d="M296.91,81.26l-3.36,10.18h-4.32l10.99-32.35h5.04l11.04,32.35h-4.46l-3.46-10.18h-11.47ZM307.52,78l-3.17-9.31c-.72-2.11-1.2-4.03-1.68-5.9h-.1c-.48,1.92-1.01,3.89-1.63,5.86l-3.17,9.36h9.74Z"/>
      <path class="cls-1" d="M321.06,91.44v-32.35h4.56l10.37,16.37c2.4,3.79,4.27,7.2,5.81,10.51l.1-.05c-.38-4.32-.48-8.26-.48-13.3v-13.54h3.94v32.35h-4.22l-10.27-16.42c-2.26-3.6-4.42-7.3-6.05-10.8l-.14.05c.24,4.08.34,7.97.34,13.35v13.83h-3.94Z"/>
      <path class="cls-1" d="M358.78,62.64h-9.84v-3.55h23.95v3.55h-9.89v28.8h-4.22v-28.8Z"/>
      <path class="cls-1" d="M380.67,59.08v32.35h-4.18v-32.35h4.18Z"/>
      <path class="cls-1" d="M393.2,81.26l-3.36,10.18h-4.32l10.99-32.35h5.04l11.04,32.35h-4.46l-3.46-10.18h-11.47ZM403.81,78l-3.17-9.31c-.72-2.11-1.2-4.03-1.68-5.9h-.1c-.48,1.92-1.01,3.89-1.63,5.86l-3.17,9.36h9.74Z"/>
      <path class="cls-1" d="M434.14,59.08h4.18v21.65c0,8.59-4.22,11.23-9.79,11.23-1.54,0-3.41-.34-4.46-.77l.62-3.41c.86.34,2.11.62,3.5.62,3.74,0,5.95-1.68,5.95-8.02v-21.31Z"/>
      <path class="cls-1" d="M449.45,59.08v19.15c0,7.25,3.22,10.32,7.54,10.32,4.8,0,7.87-3.17,7.87-10.32v-19.15h4.22v18.87c0,9.94-5.23,14.02-12.24,14.02-6.62,0-11.62-3.79-11.62-13.83v-19.06h4.22Z"/>
      <path class="cls-1" d="M483.44,91.44l-10.56-32.35h4.51l5.04,15.94c1.39,4.37,2.59,8.31,3.46,12.1h.1c.91-3.74,2.26-7.82,3.7-12.05l5.47-15.99h4.46l-11.57,32.35h-4.61Z"/>
      <path class="cls-1" d="M519.87,76.27h-12.58v11.67h14.02v3.5h-18.19v-32.35h17.47v3.5h-13.3v10.23h12.58v3.46Z"/>
      <path class="cls-1" d="M526.73,91.44v-32.35h4.56l10.37,16.37c2.4,3.79,4.27,7.2,5.81,10.51l.1-.05c-.38-4.32-.48-8.26-.48-13.3v-13.54h3.94v32.35h-4.22l-10.27-16.42c-2.26-3.6-4.42-7.3-6.05-10.8l-.14.05c.24,4.08.34,7.97.34,13.35v13.83h-3.94Z"/>
      <path class="cls-1" d="M562.49,59.08v32.35h-4.18v-32.35h4.18Z"/>
      <path class="cls-1" d="M569.79,59.08h4.18v28.85h13.83v3.5h-18v-32.35Z"/>
    </g>
  </g>
</svg>