<?xml version="1.0" encoding="UTF-8"?>
<!-- Generator: Adobe Illustrator 24.0.0, SVG Export Plug-In . SVG Version: 6.00 Build 0)  -->
<svg version="1.1" id="Capa_1" xmlns="http://www.w3.org/2000/svg" xmlns:xlink="http://www.w3.org/1999/xlink" x="0px" y="0px" viewBox="0 0 200 60" style="enable-background:new 0 0 200 60;" xml:space="preserve">
<style type="text/css">
	.st0{fill:#FFD900;}
	.st1{fill:#B10023;}
</style>
<path d="M79.6,55.2h0.9v0.3h-0.7c-0.1,0-0.7,0-1.4,0.1v-1l0,0c-0.3,0.7-0.9,1.1-1.6,1.1c-1.2,0-2.3-1.3-2.3-2.6c0-1.4,1-2.6,2.4-2.7  c0.6,0,1.2,0.3,1.5,0.9l0,0v-4h-1.2V47h1.2c0.4,0,0.9,0,1.3-0.1L79.6,55.2z M76.7,55.4c0.5,0,1-0.3,1.2-0.7c0.3-0.5,0.4-0.9,0.4-2  c0-1.9-1.1-2-1.5-2c-1,0-1,0.7-1,2.6C75.8,54.7,75.9,55.4,76.7,55.4z"/>
<path d="M82.6,52.7c0,1.9-0.1,2.8,1.1,2.8c0.9,0,1.7-0.7,1.8-1.6h0.3c-0.1,1.1-1,1.9-2.1,1.9c-1.5,0-2.6-1.3-2.6-2.8  c0-1.4,1.1-2.5,2.5-2.6c0.7,0,1.3,0.3,1.7,0.9c0.3,0.4,0.4,0.9,0.4,1.4L82.6,52.7z M84.5,52.4c0-0.2,0.1-0.5,0.1-0.7  c0-0.6-0.2-1-0.9-1c-0.5-0.1-0.9,0.3-1,0.8c0,0.1,0,0.1,0,0.2v0.8H84.5z"/>
<path d="M96.5,49.4h-0.3c-0.1-0.6-0.4-1.2-0.8-1.7c-0.4-0.4-1-0.6-1.6-0.6c-1.7,0-1.9,1.6-1.9,4.1c0,2.5,0.2,3,0.5,3.5  c0.3,0.4,0.9,0.7,1.5,0.7c0.4,0,0.8-0.1,1.2-0.4c0.7-0.5,1.1-1.2,1.3-2h0.3l-0.1,2.6h-0.3c-0.1-0.3-0.2-0.5-0.5-0.7  c-0.6,0.5-1.3,0.8-2.1,0.8c-1.7,0-3.6-1.8-3.6-4.4s1.8-4.6,3.6-4.6c0.7,0,1.4,0.3,2,0.8c0.1-0.2,0.3-0.5,0.4-0.7h0.3L96.5,49.4z"/>
<path d="M103.2,53c0,1.5-1.2,2.7-2.7,2.7c0,0,0,0,0,0c-1.5-0.1-2.6-1.3-2.5-2.8c0.1-1.4,1.2-2.5,2.6-2.5c1.4,0,2.6,1.1,2.6,2.5  C103.2,52.9,103.2,52.9,103.2,53z M99.6,51.1c-0.2,0.3-0.2,0.6-0.2,1.9c0,1.2,0,1.5,0.2,1.9c0.4,0.5,1.2,0.6,1.7,0.2  c0.1-0.1,0.2-0.1,0.2-0.2c0.2-0.4,0.2-0.6,0.2-1.9c0-1.3,0-1.5-0.2-1.9c-0.2-0.3-0.6-0.5-1-0.5C100.1,50.6,99.7,50.8,99.6,51.1  L99.6,51.1z"/>
<path d="M105.1,50.9h-0.9v-0.3h0.6c0.5,0,1.1,0,1.6-0.1v1.2l0,0c0.3-0.8,1-1.3,1.8-1.2c0.8-0.1,1.4,0.4,1.5,1.2c0,0,0,0.1,0,0.1l0,0  c0.3-0.8,1-1.3,1.9-1.3c0.6,0,1.1,0.3,1.4,0.8c0.2,0.5,0.2,1,0.2,1.4v2.5h0.9v0.3h-3v-0.3h0.8v-3.2c0-0.8,0-1.3-0.6-1.3  c-0.6,0.1-1.2,0.5-1.4,1.2c-0.2,0.5-0.3,1.1-0.2,1.6v1.7h0.8v0.3h-2.9v-0.3h0.8v-2.5c0-0.5,0-1.1-0.1-1.6c-0.1-0.2-0.3-0.4-0.5-0.4  c-0.8,0-1.3,0.8-1.5,1.4c-0.1,0.5-0.1,1-0.1,1.5v1.6h0.8v0.3h-3v-0.3h0.9V50.9z"/>
<path d="M116.3,52.7c0,1.9,0,2.8,1.1,2.8c0.9,0,1.7-0.7,1.8-1.6h0.3c-0.1,1.1-1,1.9-2.1,1.9c-1.5,0-2.6-1.3-2.6-2.8  c0-1.4,1.1-2.5,2.5-2.6c0.7,0,1.4,0.3,1.8,0.9c0.3,0.4,0.4,0.9,0.4,1.4L116.3,52.7z M118.1,52.4c0-0.2,0-0.5,0-0.7  c0-0.6-0.2-1-0.9-1c-0.5-0.1-0.9,0.3-1,0.8c0,0.1,0,0.1,0,0.2v0.8H118.1z"/>
<path d="M121.2,50.9h-1v-0.3h1c0.4,0,0.8,0,1.2-0.1v1.2l0,0c0.3-0.9,0.8-1.2,1.3-1.2c0.4,0,0.8,0.3,0.9,0.7c0,0,0,0,0,0.1  c0,0.3-0.2,0.6-0.6,0.7c0,0-0.1,0-0.1,0c-0.3,0-0.5-0.2-0.5-0.5c0,0,0,0,0-0.1v-0.3c0-0.1-0.1-0.1-0.1-0.1c-0.1,0-0.3,0.1-0.5,0.5  c-0.3,0.6-0.4,1.2-0.4,1.8v2h1.1v0.3h-3.3v-0.3h1.1V50.9z"/>
<path d="M130.1,53.8c-0.1,1.1-1,1.9-2.1,1.9c-1.4,0-2.6-1.2-2.6-2.6c0-1.5,1.2-2.7,2.7-2.7c0,0,0,0,0,0c1.2,0,1.8,0.7,1.8,1.3  c0,0.3-0.2,0.6-0.6,0.7c0,0,0,0,0,0c-0.3,0-0.6-0.3-0.6-0.6c0-0.1,0-0.3,0.1-0.3c0,0,0.1-0.1,0.1-0.2c0,0,0-0.1,0-0.1  c0-0.2-0.3-0.4-0.9-0.4c-1.2,0-1.3,0.7-1.3,1.9c0,1.9,0,2.9,1.2,2.9c1.2,0,1.7-1.2,1.8-1.6L130.1,53.8z"/>
<path d="M132.9,55.2h0.8v0.3h-3v-0.3h0.9v-4.4h-0.9v-0.3h0.9c0.4,0,0.8,0,1.2-0.1L132.9,55.2z M133,48c0,0.4-0.2,0.7-0.6,0.8  s-0.7-0.2-0.8-0.6c0,0,0-0.1,0-0.1c0-0.4,0.4-0.7,0.8-0.6C132.7,47.4,133,47.6,133,48z"/>
<path d="M139.8,53c0,1.5-1.2,2.7-2.7,2.7c0,0,0,0,0,0c-1.5,0-2.6-1.2-2.6-2.7c0,0,0,0,0,0c0-1.4,1.1-2.6,2.6-2.7c0,0,0.1,0,0.1,0  c1.4,0,2.6,1.1,2.6,2.5C139.8,52.9,139.8,52.9,139.8,53z M136.2,51.1c-0.2,0.3-0.2,0.6-0.2,1.9c0,1.2,0,1.5,0.2,1.9  c0.4,0.5,1.2,0.7,1.7,0.2c0.1-0.1,0.2-0.1,0.2-0.2c0.2-0.4,0.2-0.6,0.2-1.9c0-1.3,0-1.5-0.2-1.9c-0.2-0.3-0.6-0.5-1-0.5  C136.8,50.6,136.4,50.8,136.2,51.1z"/>
<path d="M149.4,55.2h0.9v0.3h-0.7c-0.1,0-0.7,0-1.4,0.1v-1l0,0c-0.3,0.7-0.9,1.1-1.6,1.1c-1.2,0-2.3-1.3-2.3-2.6  c-0.1-1.4,1-2.6,2.4-2.7c0.6,0,1.2,0.3,1.5,0.9l0,0v-4h-1.2V47h1.2c0.4,0,0.9,0,1.3-0.1V55.2z M146.5,55.4c0.5,0,1-0.3,1.2-0.7  c0.3-0.5,0.4-0.9,0.4-2c0-1.9-1.1-2-1.5-2c-1,0-1,0.7-1,2.6C145.6,54.7,145.7,55.4,146.5,55.4L146.5,55.4z"/>
<path d="M152.5,52.7c0,1.9,0,2.8,1.1,2.8c0.9,0,1.7-0.7,1.8-1.6h0.3c-0.1,1.1-1,1.9-2.1,1.9c-1.5,0-2.6-1.3-2.6-2.8  c0-1.4,1.1-2.5,2.5-2.6c0.7,0,1.4,0.3,1.8,0.9c0.3,0.4,0.4,0.9,0.4,1.4L152.5,52.7z M154.3,52.4c0-0.2,0-0.5,0-0.7  c0-0.6-0.2-1-0.9-1c-0.5-0.1-0.9,0.3-1,0.8c0,0.1,0,0.1,0,0.2v0.8H154.3z"/>
<path d="M163,51h0.8c0.6,0,1.4,0,1.5-1.6h0.3V53h-0.3c-0.1-1.5-0.6-1.7-1.5-1.7H163v3.9h1.7c1.7,0,2.6-0.5,2.7-2.5h0.3l-0.1,2.9  h-7.6v-0.3h1.4v-7.9h-1.4V47h7.3l0.1,2.3h-0.3c-0.2-1.5-0.9-2-2.4-2H163V51z"/>
<path d="M172.5,51.9h-0.3c-0.1-0.7-0.7-1.3-1.4-1.2c-0.7,0-1.2,0.4-1.2,0.8c0,0.5,0.5,0.6,1.3,0.7c0.5,0.1,1.9,0.3,1.9,1.7  c0,0.9-0.7,1.7-1.6,1.7c0,0-0.1,0-0.1,0c-0.5,0-1-0.2-1.4-0.6l-0.4,0.4h-0.2v-1.9h0.2c0.1,0.4,0.3,0.8,0.5,1.1  c0.3,0.4,0.8,0.7,1.3,0.7c0.6,0,1.3-0.4,1.3-1c0-0.6-0.4-0.7-1.5-0.9c-0.5-0.1-1.8-0.3-1.8-1.6c0-0.9,0.7-1.6,1.6-1.5c0,0,0,0,0.1,0  c0.5,0,0.9,0.2,1.2,0.5c0.1-0.1,0.2-0.2,0.3-0.4h0.2L172.5,51.9z"/>
<path d="M175.9,58.5h1v0.4h-3.1v-0.4h0.9v-7.7h-0.9v-0.3h0.7c0.5,0,1,0,1.5-0.1v1l0,0c0.3-0.7,0.9-1.1,1.6-1.1  c1.3,0.1,2.3,1.2,2.3,2.5c0,1.4-1,2.6-2.4,2.7c-0.6,0-1.2-0.4-1.5-0.9l0,0L175.9,58.5z M176.2,51.5c-0.2,0.5-0.3,1-0.3,1.5  c0,0.5,0,1,0.2,1.4c0.3,0.5,0.8,0.8,1.4,0.9c0.8,0,1-0.8,1-2.3c0-0.6,0-1.3-0.1-1.9c-0.1-0.3-0.4-0.5-0.8-0.5  C177,50.7,176.4,51,176.2,51.5z"/>
<path d="M184.3,52c0-1,0-1.3-0.8-1.3c-0.5,0-1,0.1-1,0.4c0,0.1,0,0.1,0,0.2c0.1,0.1,0.1,0.3,0.1,0.4c0,0.3-0.2,0.5-0.5,0.5  c0,0,0,0,0,0c-0.3,0-0.6-0.2-0.6-0.5c0,0,0,0,0,0c0-0.6,0.7-1.2,2.3-1.2c1.9,0,1.8,0.7,1.8,1.5v2.4c0,0.5,0,0.8,0.3,0.8  c0.2,0,0.4-0.1,0.4-0.3h0.2c-0.1,0.6-0.5,1-1.1,0.9c-0.6,0-1-0.5-1.1-1c-0.4,0.6-1,1-1.7,1c-0.7,0.1-1.4-0.4-1.4-1.1  c0,0,0-0.1,0-0.1c0-1.6,2.3-1.7,3.2-1.8L184.3,52z M184.3,53c-1.7,0.1-1.9,0.6-1.9,1.2c-0.1,0.4,0.2,0.8,0.7,0.9c0,0,0,0,0.1,0  c0.4,0,0.8-0.3,1-0.7c0.1-0.2,0.2-0.5,0.1-0.8L184.3,53z"/>
<path d="M188.2,50.9h-0.9v-0.3h0.6c0.5,0,1,0,1.6-0.1v1.2l0,0c0.3-0.8,1-1.3,1.9-1.3c0.5,0,1,0.3,1.3,0.7c0.2,0.5,0.3,1,0.2,1.5v2.7  h1v0.3h-3.1v-0.3h0.9V52c0-0.8,0-1.3-0.6-1.3c-0.4,0-0.8,0.2-1.1,0.6c-0.4,0.5-0.6,1.1-0.5,1.8v2.1h0.8v0.3h-3v-0.3h0.9L188.2,50.9z   M192.4,47.7c0.1,0.7-0.4,1.3-1.1,1.4c0,0,0,0-0.1,0c-0.4,0-0.8-0.1-1.1-0.3c-0.3-0.1-0.5-0.2-0.8-0.3c-0.5,0-0.5,0.4-0.6,0.6h-0.2  c-0.1-0.7,0.4-1.3,1.1-1.4c0.1,0,0.1,0,0.2,0c0.4,0,0.7,0.1,1,0.3c0.3,0.2,0.6,0.3,0.9,0.3c0.4,0,0.5-0.3,0.6-0.5H192.4z"/>
<path d="M197.9,52c0-1,0-1.3-0.8-1.3c-0.5,0-1,0.1-1,0.4c0,0.1,0,0.1,0,0.2c0.1,0.1,0.1,0.3,0.1,0.4c0,0.3-0.2,0.5-0.5,0.5  c0,0,0,0,0,0c-0.3,0-0.6-0.2-0.6-0.5c0,0,0,0,0,0c0-0.6,0.7-1.2,2.3-1.2c1.9,0,1.8,0.7,1.8,1.5v2.4c0,0.5,0,0.8,0.3,0.8  c0.2,0,0.4-0.1,0.4-0.3h0.2c0,0.6-0.5,1-1.1,0.9c-0.6,0-1-0.5-1.1-1c-0.4,0.6-1,1-1.7,1c-0.7,0.1-1.4-0.4-1.4-1.1c0,0,0-0.1,0-0.1  c0-1.6,2.3-1.7,3.2-1.8L197.9,52z M197.9,53c-1.7,0.1-1.9,0.6-1.9,1.2c-0.1,0.4,0.2,0.8,0.7,0.9c0,0,0,0,0.1,0c0.4,0,0.8-0.3,1-0.7  c0.1-0.2,0.2-0.5,0.1-0.8L197.9,53z"/>
<path class="st0" d="M38.7,34.3c-1.7,4.8-5.8,8-10.9,8c-6.8,0-14-5.4-14-12.6c0-7.6,6.8-13.2,14.1-13.2c6.8,0,9.8,4.3,9.8,6.7  c0.1,2.3-1.7,4.3-4,4.4c-2.3,0.1-4.3-1.7-4.4-4c0-0.1,0-0.2,0-0.3c0-0.9,0.4-1.8,1.1-2.4c0.5-0.3,0.8-0.8,0.8-1.4  c0-1.2-2.3-1.4-3.3-1.4c-2.7,0-4.6,0.7-4.6,6.6v8c0,6.4,0.8,8,4.8,8c4.8,0,7.4-2.8,9.2-7.1L38.7,34.3z"/>
<path class="st1" d="M57.9,27.7c-5.6-0.3-15.5,1.2-15.5,8.6c0,4,2.7,6,6.4,6c3.5,0,6.8-1.7,9-4.4c0.4,2.7,2.1,4.4,4.8,4.4  c2.6,0,4.3-1.3,5.9-3.3l-0.7-0.9c-0.5,0.5-1.4,1.4-2.2,1.4s-1.5-0.4-1.5-1.2V21.9c0-1.9-0.6-2.9-2.3-3.8c-2.5-1.2-5.2-1.7-7.9-1.7  c-3.8,0-9.8,1.7-9.8,6.4c0,2,1.5,2.9,3.2,2.9c1.4,0,3-1.1,3-2.7c0-1.1-0.3-2.1-0.9-3c-0.9-1.2,2-2.4,4.4-2.4c1.1,0,4.1,0.6,4.1,2.2  L57.9,27.7z M60,4.7c0.7-0.5,1.9-1.6,1.9-2.3c-0.1-1.3-1.2-2.4-2.5-2.4c-1.4,0-2.8,1.7-3.8,2.7l-7.9,8.2h3L60,4.7z M57.9,32.4  c0.1,1.1-0.1,2.2-0.4,3.2c-0.7,2-2.4,3.7-4.5,3.7c-2.9,0-4-2-4-4.8c0-5,5.1-5.5,9-5.5V32.4z"/>
<path class="st1" d="M80.9,22.5H81c1.6-3.7,4.4-6.1,8.6-6.1c3.3-0.1,6.2,2,7.1,5.1c1.8-3,4.5-5.1,8-5.1c8.1,0,7.4,5,7.4,11.4v12h4  v1.5h-13.8v-1.5h3.3V23.3c0-1.7,0.3-4.6-2.6-4.6c-4.6,0-6.5,5.4-6.5,9.2v12h3.4v1.5H86.8v-1.5H90V25c0-2.9,0.7-6.3-3-6.3  c-3,0-6.1,4.7-6.1,9.3v11.8h3.4v1.5h-14v-1.5h4V18.4h-4.3v-1.6c3.2,0.1,6.9-0.1,10.8-0.2V22.5z"/>
<path class="st1" d="M134.5,27.7c-5.6-0.3-15.5,1.2-15.5,8.6c0,4,2.7,6,6.4,6c3.5,0,6.8-1.7,9-4.4c0.4,2.7,2.1,4.4,4.8,4.4  c2.6,0,4.3-1.3,5.9-3.3l-0.7-0.9c-0.5,0.5-1.4,1.4-2.2,1.4s-1.5-0.4-1.5-1.2V21.9c0-1.9-0.6-2.9-2.3-3.8c-2.5-1.2-5.2-1.7-7.9-1.7  c-3.8,0-9.8,1.7-9.8,6.4c0,2,1.5,2.9,3.2,2.9c1.4,0,3-1.1,3-2.7c0-1-0.3-2.1-0.9-3c-0.9-1.2,2-2.4,4.4-2.4c1.1,0,4.1,0.6,4.1,2.2  L134.5,27.7z M134.5,32.4c0.1,1.1-0.1,2.2-0.4,3.2c-0.7,2-2.3,3.7-4.5,3.7c-2.9,0-4-2-4-4.8c0-5,5.1-5.5,9-5.5V32.4z"/>
<path class="st1" d="M158.3,23.5c2-3.4,4.2-7,8.7-7c2.4,0,5,1.2,5,4c0,2.4-1.7,3.5-3.9,3.5c-1.6,0-2.9-1.3-3-2.9  c0-0.3,0.1-0.6,0.1-0.9c0.2-1,0.2-1.4-0.4-1.4c-1.2,0-1.8,0.6-2.6,1.4c-2.4,2.4-3.8,5.7-3.8,13.8v5.8h5.6v1.6H148v-1.6h3.7V18.4  h-4.1v-1.6c3.2,0.1,7-0.1,10.8-0.2L158.3,23.5z"/>
<path class="st1" d="M189.3,27.7c-5.6-0.3-15.5,1.2-15.5,8.6c0,4,2.7,6,6.4,6c3.5,0,6.8-1.7,9-4.4c0.4,2.7,2.1,4.4,4.8,4.4  c2.6,0,4.3-1.3,5.9-3.3l-0.7-0.9c-0.5,0.5-1.4,1.4-2.2,1.4c-0.7,0-1.5-0.4-1.5-1.2V21.9c0-1.9-0.6-2.9-2.3-3.8  c-2.5-1.2-5.2-1.7-7.9-1.7c-3.8,0-9.8,1.7-9.8,6.4c0,2,1.5,2.9,3.2,2.9c1.4,0,3-1.1,3-2.7c0-1.1-0.3-2.1-0.9-3  c-0.9-1.2,2-2.4,4.4-2.4c1.1,0,4.1,0.6,4.1,2.2L189.3,27.7z M189.3,32.4c0.1,1.1-0.1,2.2-0.4,3.2c-0.7,2-2.3,3.7-4.5,3.7  c-2.9,0-4-2-4-4.8c0-5,5.1-5.5,9-5.5L189.3,32.4z"/>
<path class="st1" d="M37,4.8l-0.3-0.1c-3.1-1.2-6.4-1.9-9.7-1.9C11.9,2.8,0,14.5,0,29.5c0.1,14.5,11.9,26.2,26.5,26.2  c3.5,0,7-0.7,10.2-2l0.3-0.1v-8L36.2,46c-3,1.8-6.4,2.8-9.9,2.9c-10.5,0-19-8.8-19-19.7S15.9,9.5,26.4,9.5c3.4,0,6.8,0.8,9.8,2.6  l0.8,0.5L37,4.8z"/>
</svg>