<?xml version="1.0" encoding="UTF-8"?>
<svg id="Capa_2" data-name="Capa 2" xmlns="http://www.w3.org/2000/svg" viewBox="0 0 160.85 97.43">
  <defs>
    <style>
      .cls-1 {
        fill: #fbb900;
      }

      .cls-2, .cls-3 {
        fill: #fff;
      }

      .cls-3, .cls-4 {
        fill-rule: evenodd;
      }

      .cls-4, .cls-5 {
        fill: #e40520;
      }
    </style>
  </defs>
  <g id="Capa_1-2" data-name="Capa 1">
    <path class="cls-1" d="M9.78,97.43c-5.4,0-9.78-4.38-9.78-9.78V9.78C0,4.38,4.38,0,9.78,0h151.07s0,70.56,0,70.56c0,4-1.58,7.63-4.15,10.31l-11.82,11.82c-2.84,2.84-6.73,4.64-11.03,4.74H9.78Z"/>
    <path class="cls-4" d="M47.24,71.66c0,1.45-.19,5.57-5.38,5.57-2.15,0-4.07-.61-4.07-3.09s1.87-3.13,3.93-3.56c2.06-.38,4.4-.42,5.52-1.4v2.48h0ZM38.54,64.27c.23-2.62,1.87-3.65,4.4-3.65,2.34,0,4.3.42,4.3,3.28s-3.79,2.57-7.86,3.18c-4.12.56-8.23,1.87-8.23,7.35,0,4.96,3.65,7.25,8.23,7.25,2.95,0,6.04-.8,8.14-3,.05.8.23,1.59.47,2.34h6.74c-.61-.98-.84-3.18-.84-5.38v-12.59c0-5.8-5.8-6.88-10.62-6.88-5.43,0-10.99,1.87-11.37,8.09h6.64Z"/>
    <path class="cls-5" d="M79.76,65.35c-.42-6.18-5.66-9.17-11.37-9.17-7.86,0-12.35,5.57-12.35,13.1s4.91,12.4,12.21,12.4c6.36,0,10.81-3.51,11.65-9.92h-6.41c-.42,2.95-2.2,4.91-5.29,4.91-4.16,0-5.52-4.16-5.52-7.62s1.4-7.86,5.66-7.86c2.76,0,4.49,1.45,4.91,4.16h6.5Z"/>
    <polygon class="cls-2" points="87.53 81.02 94.23 81.02 94.23 56.18 103.36 56.18 103.36 50.55 78.39 50.55 78.39 56.18 87.53 56.18 87.53 81.02 87.53 81.02"/>
    <polygon class="cls-2" points="106.24 81.02 112.95 81.02 112.95 50.55 106.24 50.55 106.24 81.02 106.24 81.02"/>
    <path class="cls-2" d="M143.99,60.79c-.81-7.04-6.44-10.97-13.14-10.97-9.43,0-14.98,7.04-14.98,16.09s5.55,15.84,14.98,15.84c7.47,0,12.72-4.87,13.4-12.46h-6.49c-.51,4.01-2.82,6.83-6.91,6.83-6.02,0-8.28-5.12-8.28-10.2,0-5.34,2.26-10.46,8.28-10.46,3.33,0,6.23,2.3,6.66,5.34h6.49Z"/>
    <path class="cls-3" d="M87.55,43.86h.74v-3.35h-.74v3.35h0ZM87.55,39.93h.74v-.7h-.74v.7h0Z"/>
    <polygon class="cls-2" points="90.92 43.86 91.66 43.86 91.66 39.23 90.92 39.23 90.92 43.86 90.92 43.86"/>
    <path class="cls-3" d="M94.53,42.74c0,.47-.51.64-.83.64-.26,0-.68-.1-.68-.43,0-.39.29-.51.6-.56.32-.06.68-.05.91-.2v.55h0ZM95.27,41.39c0-.71-.69-.97-1.34-.97-.74,0-1.47.25-1.52,1.12h.74c.03-.36.32-.53.74-.53.3,0,.69.07.69.45,0,.43-.47.38-1,.47-.62.07-1.29.21-1.29,1.04,0,.65.55.98,1.15.98.39,0,.87-.12,1.16-.41.06.3.27.41.57.41.12,0,.36-.04.47-.08v-.51c-.08.01-.13.01-.18.01-.13,0-.17-.07-.17-.25v-1.72h0Z"/>
    <path class="cls-2" d="M100.87,41.63c-.07-.82-.73-1.21-1.51-1.21-1.1,0-1.65.79-1.65,1.8s.58,1.73,1.63,1.73c.86,0,1.4-.48,1.54-1.35h-.74c-.07.48-.37.76-.8.76-.64,0-.89-.59-.89-1.15,0-1.02.54-1.22.92-1.22.41,0,.71.22.77.63h.74Z"/>
    <path class="cls-3" d="M103.01,43.37c-.66,0-.95-.6-.95-1.19s.29-1.18.95-1.18.95.6.95,1.18-.29,1.19-.95,1.19h0ZM103.01,43.95c1.08,0,1.69-.74,1.69-1.77s-.62-1.76-1.69-1.76-1.69.74-1.69,1.76.62,1.77,1.69,1.77h0Z"/>
    <path class="cls-2" d="M105.32,43.86h.74v-1.99c0-.56.35-.87.73-.87.45,0,.59.25.59.71v2.15h.74v-1.96c0-.56.21-.9.71-.9.58,0,.61.37.61.9v1.96h.74v-2.32c0-.82-.42-1.13-1.12-1.13-.49,0-.8.21-1.05.56-.15-.38-.53-.56-.94-.56-.53,0-.81.23-1.03.56h-.02v-.47h-.7v3.35h0Z"/>
    <path class="cls-2" d="M113.9,40.51h-.74v1.95c0,.52-.21.91-.82.91-.4,0-.64-.21-.64-.8v-2.06h-.74v2.13c0,.88.38,1.32,1.25,1.32.37,0,.77-.22.95-.56h.01v.47h.72v-3.35h0Z"/>
    <path class="cls-2" d="M114.68,43.86h.74v-1.98c0-.49.32-.88.81-.88.44,0,.64.23.66.75v2.11h.74v-2.3c0-.75-.46-1.14-1.19-1.14-.44,0-.82.23-1.04.6h-.01v-.51h-.7v3.35h0Z"/>
    <path class="cls-3" d="M118.42,43.86h.74v-3.35h-.74v3.35h0ZM118.42,39.93h.74v-.7h-.74v.7h0Z"/>
    <path class="cls-2" d="M122.97,41.63c-.07-.82-.73-1.21-1.51-1.21-1.1,0-1.65.79-1.65,1.8s.58,1.73,1.63,1.73c.86,0,1.4-.48,1.54-1.35h-.74c-.07.48-.37.76-.8.76-.64,0-.89-.59-.89-1.15,0-1.02.54-1.22.92-1.22.41,0,.71.22.77.63h.74Z"/>
    <path class="cls-3" d="M125.64,42.74c0,.47-.51.64-.83.64-.26,0-.68-.1-.68-.43,0-.39.29-.51.6-.56.33-.06.68-.05.91-.2v.55h0ZM126.38,41.39c0-.71-.69-.97-1.34-.97-.74,0-1.47.25-1.53,1.12h.74c.03-.36.32-.53.74-.53.3,0,.7.07.7.45,0,.43-.47.38-1.01.47-.62.07-1.29.21-1.29,1.04,0,.65.54.98,1.15.98.39,0,.87-.12,1.16-.41.06.3.27.41.57.41.12,0,.36-.04.47-.08v-.51c-.08.01-.13.01-.18.01-.13,0-.17-.07-.17-.25v-1.72h0Z"/>
    <path class="cls-2" d="M130.18,41.63c-.07-.82-.73-1.21-1.51-1.21-1.1,0-1.65.79-1.65,1.8s.58,1.73,1.63,1.73c.86,0,1.4-.48,1.54-1.35h-.74c-.07.48-.37.76-.8.76-.64,0-.89-.59-.89-1.15,0-1.02.54-1.22.92-1.22.41,0,.71.22.77.63h.74Z"/>
    <path class="cls-3" d="M130.8,43.86h.74v-3.35h-.74v3.35h0ZM130.8,39.93h.74v-.7h-.74v.7h0Z"/>
    <path class="cls-3" d="M133.39,40.05h.54l.92-.93h-.88l-.58.93h0ZM133.88,43.37c-.66,0-.95-.6-.95-1.19s.29-1.18.95-1.18.95.6.95,1.18-.29,1.19-.95,1.19h0ZM133.88,43.95c1.08,0,1.69-.74,1.69-1.77s-.62-1.76-1.69-1.76-1.69.74-1.69,1.76.62,1.77,1.69,1.77h0Z"/>
    <path class="cls-3" d="M88.11,35.69c0-.6.25-1.22.94-1.22.57,0,.93.44.93,1.18,0,.58-.28,1.19-.94,1.19s-.93-.57-.93-1.15h0ZM90.69,32.7h-.74v1.71h-.01c-.23-.37-.69-.52-1.12-.52-.73,0-1.45.53-1.45,1.74,0,1,.51,1.79,1.57,1.79.42,0,.84-.16,1.04-.55h.01v.46h.7v-4.63h0Z"/>
    <path class="cls-3" d="M94.54,35.85c.12-1-.53-1.96-1.58-1.96-1,0-1.62.82-1.62,1.77,0,1.03.59,1.76,1.64,1.76.73,0,1.36-.41,1.52-1.14h-.7c-.13.37-.39.56-.82.56-.62,0-.9-.47-.9-.99h2.46ZM92.07,35.36c.02-.5.37-.89.88-.89s.82.42.84.89h-1.73Z"/>
    <polygon class="cls-2" points="96.92 37.33 97.66 37.33 97.66 32.7 96.92 32.7 96.92 37.33 96.92 37.33"/>
    <path class="cls-3" d="M100.53,36.2c0,.47-.51.64-.83.64-.26,0-.68-.1-.68-.43,0-.39.29-.51.6-.56.32-.06.68-.05.91-.2v.55h0ZM101.27,34.86c0-.71-.69-.97-1.34-.97-.74,0-1.47.25-1.53,1.12h.74c.03-.36.32-.53.74-.53.3,0,.7.07.7.45,0,.43-.47.38-1.01.47-.62.07-1.29.21-1.29,1.04,0,.65.54.98,1.15.98.4,0,.87-.12,1.16-.41.06.3.27.41.57.41.12,0,.36-.05.47-.08v-.51c-.08.01-.14.01-.18.01-.14,0-.18-.07-.18-.25v-1.72h0Z"/>
    <path class="cls-3" d="M103.89,37.33h.74v-3.35h-.74v3.35h0ZM103.89,33.4h.74v-.7h-.74v.7h0Z"/>
    <path class="cls-2" d="M105.43,37.33h.74v-1.98c0-.49.32-.88.81-.88.44,0,.64.23.65.75v2.11h.74v-2.3c0-.75-.46-1.14-1.19-1.14-.44,0-.82.23-1.04.6h-.01v-.51h-.7v3.35h0Z"/>
    <path class="cls-2" d="M108.82,34.53h.55v2.8h.74v-2.8h.63v-.55h-.63v-.34c0-.28.16-.35.36-.35.15,0,.25.01.34.04v-.58c-.12-.03-.29-.04-.52-.04-.48,0-.93.14-.93,1v.28h-.55v.55h0Z"/>
    <path class="cls-3" d="M112.73,36.84c-.66,0-.95-.6-.95-1.19s.29-1.18.95-1.18.95.6.95,1.18-.29,1.19-.95,1.19h0ZM112.73,37.42c1.08,0,1.69-.74,1.69-1.77s-.62-1.76-1.69-1.76-1.69.74-1.69,1.76.62,1.77,1.69,1.77h0Z"/>
    <path class="cls-2" d="M115.04,37.33h.74v-1.6c0-.74.4-1.15.91-1.15.1,0,.21.02.32.03v-.71c-.07,0-.11-.02-.28-.02-.46,0-.89.38-.98.74h-.01v-.65h-.69v3.35h0Z"/>
    <path class="cls-2" d="M117.32,37.33h.74v-1.99c0-.56.35-.87.73-.87.45,0,.59.25.59.71v2.15h.74v-1.96c0-.56.21-.9.71-.9.58,0,.61.37.61.9v1.96h.74v-2.32c0-.82-.42-1.13-1.12-1.13-.49,0-.8.21-1.05.56-.15-.38-.53-.56-.94-.56-.53,0-.81.23-1.03.56h-.02v-.47h-.7v3.35h0Z"/>
    <path class="cls-3" d="M125.03,36.2c0,.47-.51.64-.83.64-.26,0-.68-.1-.68-.43,0-.39.29-.51.6-.56.32-.06.68-.05.91-.2v.55h0ZM125.77,34.86c0-.71-.69-.97-1.34-.97-.74,0-1.47.25-1.52,1.12h.74c.03-.36.32-.53.74-.53.3,0,.69.07.69.45,0,.43-.47.38-1,.47-.62.07-1.29.21-1.29,1.04,0,.65.54.98,1.15.98.39,0,.87-.12,1.16-.41.06.3.27.41.57.41.12,0,.36-.05.47-.08v-.51c-.08.01-.14.01-.18.01-.13,0-.17-.07-.17-.25v-1.72h0Z"/>
    <path class="cls-2" d="M129.57,35.1c-.07-.82-.73-1.21-1.51-1.21-1.1,0-1.65.79-1.65,1.8s.58,1.73,1.63,1.73c.86,0,1.4-.48,1.54-1.35h-.74c-.07.48-.37.76-.8.76-.64,0-.89-.59-.89-1.15,0-1.02.54-1.22.92-1.22.41,0,.71.22.76.63h.74Z"/>
    <path class="cls-3" d="M130.19,37.33h.74v-3.35h-.74v3.35h0ZM130.19,33.4h.74v-.7h-.74v.7h0Z"/>
    <path class="cls-3" d="M132.78,33.52h.54l.92-.93h-.88l-.58.93h0ZM133.27,36.84c-.66,0-.95-.6-.95-1.19s.29-1.18.95-1.18.95.6.95,1.18-.29,1.19-.95,1.19h0ZM133.27,37.42c1.08,0,1.69-.74,1.69-1.77s-.62-1.76-1.69-1.76-1.69.74-1.69,1.76.62,1.77,1.69,1.77h0Z"/>
    <path class="cls-3" d="M90.57,29.32c.12-1-.53-1.96-1.58-1.96-1,0-1.62.82-1.62,1.77,0,1.03.59,1.76,1.64,1.76.73,0,1.36-.41,1.52-1.14h-.7c-.13.37-.39.56-.82.56-.62,0-.9-.47-.9-.99h2.46ZM88.11,28.83c.02-.5.37-.89.88-.89s.82.42.84.89h-1.72Z"/>
    <path class="cls-2" d="M91.14,30.8h.74v-1.98c0-.49.32-.88.81-.88.43,0,.64.23.65.75v2.11h.74v-2.3c0-.75-.46-1.14-1.19-1.14-.44,0-.82.23-1.04.6h-.01v-.51h-.7v3.35h0Z"/>
    <path class="cls-2" d="M96.32,28h.56v1.98c.01.56.15.86.93.86.16,0,.32-.03.48-.04v-.57c-.1.03-.21.03-.31.03-.33,0-.36-.15-.36-.46v-1.79h.67v-.55h-.67v-1.01h-.74v1.01h-.56v.55h0Z"/>
    <path class="cls-3" d="M101.86,29.32c.12-1-.53-1.96-1.58-1.96-1,0-1.62.82-1.62,1.77,0,1.03.59,1.76,1.64,1.76.73,0,1.36-.41,1.52-1.14h-.7c-.13.37-.39.56-.82.56-.62,0-.9-.47-.9-.99h2.46ZM99.4,28.83c.02-.5.37-.89.88-.89s.82.42.84.89h-1.72Z"/>
    <path class="cls-2" d="M105.43,28.57c-.07-.82-.73-1.21-1.51-1.21-1.1,0-1.65.79-1.65,1.8s.58,1.73,1.63,1.73c.86,0,1.4-.48,1.54-1.35h-.74c-.07.48-.37.76-.8.76-.64,0-.89-.59-.89-1.15,0-1.02.54-1.22.92-1.22.41,0,.71.22.77.63h.74Z"/>
    <path class="cls-2" d="M106.03,30.8h.74v-1.98c0-.49.32-.88.81-.88.43,0,.64.23.65.75v2.11h.74v-2.3c0-.75-.46-1.14-1.19-1.14-.44,0-.82.23-1.04.6h-.01v-.51h-.7v3.35h0Z"/>
    <path class="cls-3" d="M111.29,30.31c-.66,0-.95-.6-.95-1.19s.29-1.18.95-1.18.95.6.95,1.18-.29,1.19-.95,1.19h0ZM111.29,30.89c1.08,0,1.69-.74,1.69-1.77s-.62-1.76-1.69-1.76-1.69.74-1.69,1.76.62,1.77,1.69,1.77h0Z"/>
    <polygon class="cls-2" points="113.62 30.8 114.36 30.8 114.36 26.17 113.62 26.17 113.62 30.8 113.62 30.8"/>
    <path class="cls-3" d="M116.7,30.31c-.66,0-.95-.6-.95-1.19s.29-1.18.95-1.18.95.6.95,1.18-.29,1.19-.95,1.19h0ZM116.7,30.89c1.08,0,1.69-.74,1.69-1.77s-.62-1.76-1.69-1.76-1.69.74-1.69,1.76.62,1.77,1.69,1.77h0Z"/>
    <path class="cls-3" d="M120.46,30.22c-.62,0-.88-.56-.88-1.11s.23-1.17.88-1.17.9.53.9,1.11-.25,1.17-.9,1.17h0ZM122.1,27.45h-.74v.46h-.01c-.19-.38-.57-.55-.99-.55-.96,0-1.52.78-1.52,1.68,0,.96.44,1.76,1.5,1.76.41,0,.8-.22,1.01-.59h.01v.51c0,.55-.27.86-.86.86-.38,0-.71-.07-.8-.49h-.74c.07.78.82,1.04,1.5,1.04,1.06,0,1.65-.5,1.65-1.5v-3.18h0Z"/>
    <path class="cls-3" d="M122.87,30.8h.74v-3.35h-.74v3.35h0ZM122.87,26.87h.74v-.7h-.74v.7h0Z"/>
    <path class="cls-3" d="M127.45,29.32c.12-1-.53-1.96-1.58-1.96-1,0-1.62.82-1.62,1.77,0,1.03.59,1.76,1.64,1.76.73,0,1.36-.41,1.52-1.14h-.7c-.13.37-.39.56-.82.56-.62,0-.9-.47-.9-.99h2.46ZM124.99,28.83c.02-.5.37-.89.88-.89s.82.42.84.89h-1.73Z"/>
    <path class="cls-2" d="M127.83,29.72c.01.79.64,1.17,1.48,1.17.69,0,1.5-.29,1.5-1.09,0-.66-.54-.86-1.08-.98-.54-.12-1.09-.18-1.09-.54,0-.29.39-.34.61-.34.32,0,.62.1.68.45h.77c-.09-.75-.71-1.03-1.4-1.03-.61,0-1.4.23-1.4.96,0,.68.53.87,1.08.99.54.12,1.08.17,1.1.56.02.38-.47.44-.75.44-.4,0-.72-.15-.76-.58h-.74Z"/>
    <path class="cls-3" d="M88.11,22.63c0-.6.25-1.22.94-1.22.57,0,.93.44.93,1.18,0,.58-.28,1.19-.94,1.19s-.93-.57-.93-1.15h0ZM90.69,19.64h-.74v1.71h-.01c-.23-.37-.69-.53-1.12-.53-.73,0-1.45.53-1.45,1.75,0,1,.51,1.79,1.57,1.79.42,0,.84-.16,1.04-.54h.01v.45h.7v-4.63h0Z"/>
    <path class="cls-3" d="M94.54,22.78c.12-1-.53-1.96-1.58-1.96-1,0-1.62.82-1.62,1.77,0,1.03.59,1.76,1.64,1.76.73,0,1.36-.41,1.52-1.14h-.7c-.13.37-.39.56-.82.56-.62,0-.9-.47-.9-.99h2.46ZM92.07,22.3c.02-.5.37-.89.88-.89s.82.42.84.89h-1.73Z"/>
    <path class="cls-2" d="M99.9,22.04c-.07-.82-.73-1.21-1.51-1.21-1.1,0-1.65.79-1.65,1.8s.58,1.73,1.63,1.73c.86,0,1.4-.48,1.54-1.35h-.74c-.07.48-.37.77-.8.77-.64,0-.89-.59-.89-1.15,0-1.02.54-1.22.92-1.22.41,0,.71.22.77.63h.74Z"/>
    <path class="cls-3" d="M102.04,23.78c-.66,0-.95-.6-.95-1.19s.29-1.18.95-1.18.95.6.95,1.18-.29,1.19-.95,1.19h0ZM102.04,24.36c1.08,0,1.69-.74,1.69-1.77s-.62-1.76-1.69-1.76-1.69.74-1.69,1.76.62,1.77,1.69,1.77h0Z"/>
    <path class="cls-2" d="M104.35,24.27h.74v-1.99c0-.56.35-.87.73-.87.45,0,.59.25.59.71v2.15h.74v-1.96c0-.56.21-.89.71-.89.58,0,.61.37.61.9v1.96h.74v-2.31c0-.82-.42-1.13-1.12-1.13-.49,0-.8.21-1.05.56-.15-.38-.53-.56-.94-.56-.53,0-.81.23-1.03.56h-.02v-.47h-.7v3.35h0Z"/>
    <path class="cls-3" d="M112.59,22.6c0,.58-.25,1.18-.93,1.18-.6,0-.94-.51-.94-1.18,0-.71.32-1.19.94-1.19s.93.58.93,1.19h0ZM110.01,25.51h.74v-1.67h.01c.23.37.69.53,1.12.53.99,0,1.45-.85,1.45-1.75,0-.98-.51-1.78-1.57-1.78-.43,0-.83.16-1.04.54h-.01v-.45h-.7v4.59h0Z"/>
    <path class="cls-3" d="M117,22.78c.12-1-.53-1.96-1.58-1.96-1,0-1.62.82-1.62,1.77,0,1.03.59,1.76,1.64,1.76.73,0,1.36-.41,1.52-1.14h-.7c-.13.37-.39.56-.82.56-.62,0-.9-.47-.9-.99h2.46ZM114.53,22.3c.02-.5.37-.89.88-.89s.82.42.84.89h-1.72Z"/>
    <path class="cls-2" d="M117.22,21.47h.56v1.98c.01.56.16.86.93.86.16,0,.32-.03.48-.04v-.57c-.11.03-.21.03-.31.03-.33,0-.36-.15-.36-.46v-1.79h.67v-.55h-.67v-1.01h-.74v1.01h-.56v.55h0Z"/>
    <path class="cls-3" d="M120.16,19.53l.92.93h.54l-.59-.93h-.87ZM122.76,22.78c.12-1-.53-1.96-1.58-1.96-1,0-1.62.82-1.62,1.77,0,1.03.59,1.76,1.64,1.76.73,0,1.36-.41,1.52-1.14h-.7c-.13.37-.39.56-.82.56-.62,0-.9-.47-.9-.99h2.46ZM120.29,22.3c.02-.5.37-.89.88-.89s.82.42.84.89h-1.73Z"/>
    <path class="cls-2" d="M123.32,24.27h.74v-1.98c0-.49.32-.88.81-.88.44,0,.64.23.66.75v2.11h.74v-2.3c0-.75-.46-1.14-1.19-1.14-.44,0-.82.23-1.04.6h-.01v-.51h-.7v3.35h0Z"/>
    <path class="cls-2" d="M130.05,22.04c-.07-.82-.73-1.21-1.51-1.21-1.1,0-1.65.79-1.65,1.8s.58,1.73,1.63,1.73c.86,0,1.4-.48,1.54-1.35h-.74c-.07.48-.37.77-.8.77-.64,0-.89-.59-.89-1.15,0-1.02.54-1.22.92-1.22.41,0,.71.22.77.63h.74Z"/>
    <path class="cls-3" d="M130.67,24.27h.74v-3.35h-.74v3.35h0ZM130.67,20.34h.74v-.7h-.74v.7h0Z"/>
    <path class="cls-3" d="M135.25,22.78c.12-1-.53-1.96-1.58-1.96-1,0-1.62.82-1.62,1.77,0,1.03.59,1.76,1.64,1.76.73,0,1.36-.41,1.52-1.14h-.7c-.13.37-.39.56-.82.56-.62,0-.9-.47-.9-.99h2.46ZM132.79,22.3c.02-.5.37-.89.88-.89s.82.42.84.89h-1.72Z"/>
    <path class="cls-2" d="M135.64,23.19c.01.79.64,1.17,1.48,1.17.7,0,1.5-.29,1.5-1.09,0-.66-.54-.86-1.08-.98-.55-.12-1.09-.18-1.09-.54,0-.29.4-.34.61-.34.32,0,.62.1.68.45h.77c-.09-.75-.71-1.03-1.4-1.03-.61,0-1.4.23-1.4.96,0,.68.53.88,1.08.99.54.12,1.08.17,1.1.56.02.38-.47.44-.75.44-.4,0-.72-.16-.76-.58h-.74Z"/>
    <path class="cls-3" d="M89.6,16.61c0,.47-.51.64-.83.64-.26,0-.68-.1-.68-.43,0-.39.29-.51.6-.56.32-.06.68-.05.91-.2v.55h0ZM90.34,15.27c0-.71-.69-.97-1.34-.97-.74,0-1.47.25-1.52,1.12h.74c.03-.36.32-.53.74-.53.3,0,.69.07.69.45,0,.43-.47.38-1.01.47-.62.07-1.29.21-1.29,1.04,0,.66.54.98,1.15.98.4,0,.87-.12,1.16-.41.06.3.27.41.57.41.12,0,.36-.05.47-.08v-.51c-.08.01-.14.01-.18.01-.14,0-.18-.07-.18-.25v-1.73h0Z"/>
    <path class="cls-2" d="M94.14,15.51c-.07-.82-.73-1.21-1.51-1.21-1.1,0-1.65.79-1.65,1.8s.58,1.73,1.63,1.73c.86,0,1.4-.48,1.54-1.35h-.74c-.07.48-.37.77-.8.77-.64,0-.89-.59-.89-1.15,0-1.02.54-1.22.92-1.22.41,0,.71.22.77.63h.74Z"/>
    <path class="cls-2" d="M94.74,17.74h.74v-1.6c0-.74.4-1.15.91-1.15.11,0,.21.02.32.03v-.71c-.06,0-.11-.02-.28-.02-.45,0-.89.38-.98.74h-.01v-.65h-.69v3.35h0Z"/>
    <path class="cls-3" d="M99.95,16.25c.12-1.01-.53-1.96-1.58-1.96-1,0-1.62.82-1.62,1.77,0,1.03.59,1.76,1.64,1.76.73,0,1.36-.41,1.52-1.14h-.7c-.13.37-.39.56-.82.56-.62,0-.9-.47-.9-.99h2.46ZM97.48,15.77c.02-.5.37-.89.88-.89s.82.42.84.89h-1.72Z"/>
    <path class="cls-3" d="M101.09,16.1c0-.6.25-1.22.94-1.22.57,0,.93.44.93,1.18,0,.58-.28,1.19-.94,1.19s-.93-.57-.93-1.15h0ZM103.67,13.11h-.74v1.71h-.01c-.23-.37-.69-.53-1.12-.53-.73,0-1.45.53-1.45,1.74,0,1.01.51,1.79,1.57,1.79.42,0,.84-.16,1.04-.54h.01v.45h.7v-4.63h0Z"/>
    <path class="cls-3" d="M104.49,17.74h.74v-3.35h-.74v3.35h0ZM104.49,13.81h.74v-.7h-.74v.7h0Z"/>
    <path class="cls-2" d="M105.7,14.94h.56v1.98c.01.56.16.86.93.86.16,0,.32-.03.48-.04v-.57c-.1.03-.21.03-.31.03-.33,0-.36-.16-.36-.46v-1.79h.67v-.55h-.67v-1.01h-.74v1.01h-.56v.55h0Z"/>
    <path class="cls-3" d="M110.26,16.61c0,.47-.51.64-.83.64-.26,0-.68-.1-.68-.43,0-.39.29-.51.6-.56.32-.06.68-.05.91-.2v.55h0ZM111,15.27c0-.71-.69-.97-1.34-.97-.74,0-1.47.25-1.53,1.12h.74c.03-.36.32-.53.74-.53.3,0,.7.07.7.45,0,.43-.47.38-1.01.47-.62.07-1.29.21-1.29,1.04,0,.66.54.98,1.15.98.4,0,.87-.12,1.16-.41.06.3.27.41.57.41.12,0,.36-.05.47-.08v-.51c-.08.01-.14.01-.18.01-.14,0-.18-.07-.18-.25v-1.73h0Z"/>
    <path class="cls-2" d="M114.8,15.51c-.07-.82-.73-1.21-1.51-1.21-1.1,0-1.65.79-1.65,1.8s.58,1.73,1.63,1.73c.86,0,1.4-.48,1.54-1.35h-.74c-.07.48-.37.77-.8.77-.64,0-.89-.59-.89-1.15,0-1.02.54-1.22.92-1.22.41,0,.71.22.77.63h.74Z"/>
    <path class="cls-3" d="M115.42,17.74h.74v-3.35h-.74v3.35h0ZM115.42,13.81h.74v-.7h-.74v.7h0Z"/>
    <path class="cls-3" d="M118.01,13.92h.54l.92-.93h-.88l-.58.93h0ZM118.5,17.25c-.66,0-.96-.6-.96-1.19s.29-1.18.96-1.18.95.6.95,1.18-.29,1.19-.95,1.19h0ZM118.5,17.83c1.08,0,1.69-.74,1.69-1.77s-.62-1.76-1.69-1.76-1.69.74-1.69,1.76.62,1.77,1.69,1.77h0Z"/>
    <path class="cls-5" d="M32.64,45.84c-.89-.88-1.34-2.04-1.32-3.21v-7.92c0-.86.34-1.73,1-2.39.66-.66,1.53-.99,2.4-.99h7.94c1.14.01,2.3.44,3.18,1.32.43.43,6.14,6.14,6.73,6.74.89.88,1.34,2.04,1.32,3.21v7.92c0,.86-.34,1.73-1,2.39-.66.66-1.53.99-2.4.99h-7.94c-1.14-.01-2.3-.44-3.18-1.32-.43-.43-6.14-6.14-6.73-6.73h0Z"/>
    <path class="cls-5" d="M27.95,45.9c.89-.89,1.34-2.04,1.32-3.21v-7.92c0-.86-.34-1.73-1-2.39s-1.53-.99-2.4-.99h-7.94c-1.14,0-2.3.44-3.18,1.32-.43.43-6.14,6.14-6.73,6.73-.88.89-1.34,2.04-1.32,3.21v7.92c0,.86.34,1.73,1,2.39.66.66,1.53.99,2.4.99h7.94c1.14-.01,2.3-.44,3.18-1.32.43-.43,6.14-6.14,6.73-6.73h0Z"/>
    <path class="cls-5" d="M8.02,21.23c-.89-.89-1.34-2.04-1.32-3.21v-7.92c0-.86.33-1.73,1-2.39.66-.66,1.53-.99,2.4-.99h7.94c1.14.01,2.3.44,3.18,1.32.43.43,6.14,6.14,6.73,6.73.89.89,1.34,2.04,1.32,3.21v7.92c0,.86-.34,1.73-1,2.39-.66.66-1.53.99-2.4.99h-7.94c-1.14,0-2.3-.44-3.18-1.32-.43-.43-6.14-6.14-6.73-6.73h0Z"/>
    <path class="cls-5" d="M31.31,17.71c0-1.82,1.47-3.29,3.29-3.29h8.29c1.82,0,3.29,1.47,3.29,3.29v8.29c0,1.82-1.47,3.29-3.29,3.29h-8.29c-1.82,0-3.29-1.47-3.29-3.29v-8.29h0Z"/>
  </g>
</svg>