<?xml version="1.0" encoding="UTF-8"?>
<svg id="Capa_1" data-name="Capa 1" xmlns="http://www.w3.org/2000/svg" viewBox="0 0 296.83 38.29">
  <defs>
    <style>
      .cls-1 {
        fill: #94c11f;
      }

      .cls-2 {
        fill: #fff;
      }

      .cls-3 {
        fill: #009fe3;
      }
    </style>
  </defs>
  <polygon class="cls-1" points="0 0 83.69 0 66.59 38.29 0 38.29 0 0"/>
  <path class="cls-2" d="M28.51,23.35c0-1.82-.49-3.32-1.59-4.36-.87-.81-2.05-1.33-3.92-1.59l-2.42-.35c-.84-.12-1.5-.43-1.91-.81-.43-.41-.61-.95-.61-1.47,0-1.41,1.04-2.6,3.17-2.6,1.36,0,2.91.17,4.21,1.41l2.54-2.51c-1.76-1.7-3.81-2.4-6.64-2.4-4.45,0-7.16,2.57-7.16,6.23,0,1.73.49,3.06,1.47,4.04.92.89,2.22,1.44,3.98,1.7l2.48.35c.95.14,1.42.35,1.82.72.43.4.64,1.01.64,1.73,0,1.64-1.27,2.54-3.64,2.54-1.9,0-3.67-.43-4.96-1.73l-2.6,2.6c2.02,2.05,4.39,2.71,7.5,2.71,4.3,0,7.62-2.25,7.62-6.23"/>
  <path class="cls-2" d="M46.09,19.13c0-3.55.03-6.12-2.05-8.2-1.44-1.44-3.2-2.25-5.54-2.25s-4.13.81-5.57,2.25c-2.08,2.08-2.02,4.65-2.02,8.2s-.06,6.12,2.02,8.2c1.44,1.44,3.23,2.25,5.57,2.25s4.1-.81,5.54-2.25c2.08-2.08,2.05-4.65,2.05-8.2M42.08,19.13c0,3.95-.23,4.91-1.01,5.77-.58.66-1.47,1.1-2.57,1.1s-2.02-.43-2.6-1.1c-.78-.87-.98-1.82-.98-5.77s.2-4.91.98-5.77c.58-.66,1.5-1.1,2.6-1.1s1.99.43,2.57,1.1c.78.87,1.01,1.82,1.01,5.77"/>
  <path class="cls-2" d="M63.67,23.09h-4.07c-.43,1.76-1.53,2.92-3.46,2.92-1.1,0-1.96-.35-2.57-1.07-.84-.9-1.01-1.82-1.01-5.8s.17-4.91,1.01-5.8c.61-.72,1.47-1.07,2.57-1.07,1.93,0,3.03,1.15,3.46,2.91h4.07c-.69-4.18-3.61-6.49-7.56-6.49-2.19,0-4.04.75-5.54,2.25-.9.89-1.44,1.9-1.67,3.09-.23,1.15-.35,2.86-.35,5.11s.12,3.95.35,5.11c.23,1.15.78,2.19,1.67,3.09,1.5,1.5,3.35,2.25,5.54,2.25,3.93,0,6.87-2.31,7.56-6.49"/>
  <polygon class="cls-3" points="70.86 38.25 88.01 0 296.83 0 296.83 38.25 70.86 38.25"/>
  <path class="cls-2" d="M210.38,29.36v-9.85h-1.41v3.54c-.51-.61-1.1-.79-1.84-.79s-1.31.24-1.7.62c-.71.71-.79,1.9-.79,2.96s.08,2.27.79,2.97c.39.39,1.01.62,1.71.62.76,0,1.33-.19,1.85-.83v.75h1.38ZM208.97,25.84c0,1.24-.18,2.34-1.45,2.34s-1.47-1.09-1.47-2.34.19-2.32,1.47-2.32,1.45,1.08,1.45,2.32"/>
  <path class="cls-2" d="M217.78,26.35v-.62c0-1.99-1.09-3.37-2.97-3.37s-2.97,1.31-2.97,3.58c0,2.67,1.4,3.6,3.15,3.6,1.23,0,1.91-.37,2.63-1.09l-.9-.84c-.5.5-.91.72-1.7.72-1.15,0-1.78-.76-1.78-1.96h4.55ZM216.38,25.37h-3.15c.01-.43.04-.64.18-.95.22-.53.73-.89,1.4-.89s1.16.36,1.38.89c.14.32.18.53.2.95"/>
  <path class="cls-2" d="M230.19,26.51h-1.51c-.23.99-.91,1.69-2,1.69-.58,0-1.11-.22-1.45-.59-.49-.53-.6-1.09-.6-3.07s.11-2.55.6-3.07c.35-.37.87-.6,1.45-.6,1.09,0,1.76.69,1.99,1.69h1.52c-.35-1.96-1.7-3.03-3.51-3.03-1.02,0-1.91.37-2.59,1.05-.97.97-.96,2.06-.96,3.96s-.01,2.99.96,3.96c.68.68,1.57,1.05,2.59,1.05,1.79,0,3.18-1.07,3.51-3.03"/>
  <path class="cls-2" d="M237.08,29.45v-4.69c0-1.59-.97-2.41-2.89-2.41-1.16,0-1.85.24-2.52,1.01l.93.87c.39-.5.76-.68,1.54-.68,1.09,0,1.54.43,1.54,1.31v.5h-1.85c-1.61,0-2.42.84-2.42,2.02,0,.6.2,1.13.55,1.51.43.43,1.01.64,1.88.64s1.36-.21,1.87-.72v.64h1.38ZM235.67,26.92c0,.5-.1.83-.3,1.04-.37.36-.77.4-1.31.4-.88,0-1.29-.36-1.29-1s.43-1.01,1.26-1.01h1.64v.57Z"/>
  <path class="cls-2" d="M241.95,29.55v-1.2h-.58c-.53,0-.77-.3-.77-.81v-3.78h1.35v-1.08h-1.35v-2.14h-1.41v2.14h-.8v1.08h.8v3.85c0,1.01.61,1.95,1.92,1.95h.84Z"/>
  <path class="cls-2" d="M248.73,29.45v-4.69c0-1.59-.97-2.41-2.89-2.41-1.16,0-1.85.24-2.52,1.01l.93.87c.39-.5.76-.68,1.53-.68,1.09,0,1.54.43,1.54,1.31v.5h-1.85c-1.6,0-2.42.84-2.42,2.02,0,.6.2,1.13.55,1.51.43.43,1.01.64,1.88.64s1.35-.21,1.87-.72v.64h1.38ZM247.32,26.92c0,.5-.09.83-.3,1.04-.37.36-.78.4-1.32.4-.88,0-1.29-.36-1.29-1s.43-1.01,1.26-1.01h1.65v.57Z"/>
  <path class="cls-2" d="M253.61,29.55v-1.2h-.62c-.56,0-.76-.28-.76-.82v-7.83h-1.41v7.91c0,1.04.58,1.94,1.92,1.94h.87Z"/>
  <path class="cls-2" d="M260.58,29.45v-7.01h-1.41v4.27c0,1.08-.66,1.56-1.45,1.56s-1.41-.47-1.41-1.56v-4.27h-1.41v4.48c0,.79.16,1.45.7,1.98.42.4,1.01.64,1.73.64s1.39-.26,1.87-.79v.71h1.38Z"/>
  <path class="cls-2" d="M268.42,29.45v-4.48c0-.79-.17-1.45-.71-1.98-.41-.4-1.01-.64-1.73-.64s-1.38.26-1.86.79v-.71h-1.38v7.01h1.41v-4.27c0-1.08.66-1.56,1.45-1.56s1.41.47,1.41,1.56v4.27h1.41Z"/>
  <path class="cls-2" d="M275.71,22.44h-1.51l-1.63,4.94-1.67-4.94h-1.49l2.45,6.68-.39,1.09c-.21.57-.41.75-1.01.75h-.36v1.27h.57c.54,0,1.05-.12,1.44-.51.21-.21.37-.48.51-.87l3.1-8.41Z"/>
  <path class="cls-2" d="M281.72,29.45v-4.69c0-1.59-.97-2.41-2.89-2.41-1.16,0-1.85.24-2.52,1.01l.93.87c.38-.5.76-.68,1.53-.68,1.09,0,1.54.43,1.54,1.31v.5h-1.85c-1.61,0-2.42.84-2.42,2.02,0,.6.2,1.13.55,1.51.43.43,1.01.64,1.88.64s1.36-.21,1.87-.72v.64h1.38ZM280.31,26.92c0,.5-.1.83-.3,1.04-.37.36-.77.4-1.31.4-.89,0-1.29-.36-1.29-1s.43-1.01,1.26-1.01h1.64v.57Z"/>
  <path class="cls-2" d="M175.52,26.01c0-1.06-.08-2.25-.79-2.96-.39-.39-1.01-.62-1.72-.62-.76,0-1.33.19-1.85.83v-.75h-1.38v9.85h1.41v-3.55c.51.61,1.09.8,1.84.8.71,0,1.31-.23,1.7-.62.7-.71.79-1.91.79-2.97M174.11,26.01c0,1.24-.18,2.34-1.45,2.34s-1.46-1.09-1.46-2.34.2-2.32,1.46-2.32,1.45,1.08,1.45,2.32"/>
  <path class="cls-2" d="M100.69,26.71c0-.84-.26-1.55-.8-2.02-.42-.37-.93-.59-1.84-.73l-1.12-.17c-.46-.07-.86-.23-1.11-.46-.26-.24-.37-.55-.37-.91,0-.87.64-1.54,1.8-1.54.83,0,1.54.18,2.15.76l.95-.94c-.84-.79-1.75-1.12-3.06-1.12-2.05,0-3.29,1.18-3.29,2.89,0,.8.24,1.42.72,1.88.43.4,1.06.68,1.87.79l1.16.16c.58.08.83.18,1.08.42.26.23.39.59.39,1.02,0,.96-.74,1.51-2.03,1.51-1.01,0-1.8-.22-2.52-.94l-1,.98c.94.95,2.01,1.3,3.49,1.3,2.06,0,3.54-1.08,3.54-2.89"/>
  <path class="cls-2" d="M107.98,26.42v-.62c0-1.99-1.09-3.37-2.97-3.37s-2.97,1.31-2.97,3.58c0,2.67,1.4,3.6,3.15,3.6,1.23,0,1.91-.37,2.63-1.09l-.9-.84c-.5.5-.91.72-1.7.72-1.15,0-1.79-.76-1.79-1.96h4.55ZM106.58,25.43h-3.15c.01-.43.04-.64.18-.96.22-.53.73-.88,1.4-.88s1.16.36,1.38.88c.14.32.18.53.19.96"/>
  <path class="cls-2" d="M114.45,23.16c-.48-.48-.99-.66-1.67-.66-.79,0-1.51.35-1.87.84v-.76h-1.38v7.01h1.41v-4.26c0-.97.64-1.58,1.4-1.58.48,0,.73.15,1.05.47l1.07-1.06Z"/>
  <polygon class="cls-2" points="121.02 22.58 119.53 22.58 117.88 27.52 116.22 22.58 114.73 22.58 117.3 29.6 118.45 29.6 121.02 22.58"/>
  <path class="cls-2" d="M127.66,26.42v-.62c0-1.99-1.09-3.37-2.97-3.37s-2.97,1.31-2.97,3.58c0,2.67,1.4,3.6,3.15,3.6,1.23,0,1.91-.37,2.63-1.09l-.9-.84c-.5.5-.91.72-1.7.72-1.15,0-1.78-.76-1.78-1.96h4.55ZM126.26,25.43h-3.15c.01-.43.04-.64.18-.96.22-.53.73-.88,1.4-.88s1.16.36,1.38.88c.14.32.18.53.19.96"/>
  <path class="cls-2" d="M130.8,22.58h-1.41v7.01h1.41v-7.01ZM130.84,19.71h-1.5v1.49h1.5v-1.49Z"/>
  <path class="cls-2" d="M142.28,29.51v-9.85h-1.41v3.54c-.51-.61-1.09-.79-1.84-.79-.7,0-1.31.23-1.7.62-.71.7-.79,1.9-.79,2.96s.08,2.27.79,2.97c.39.39,1.01.62,1.71.62.76,0,1.33-.19,1.85-.83v.75h1.38ZM140.87,26c0,1.25-.18,2.34-1.45,2.34s-1.47-1.09-1.47-2.34.19-2.32,1.47-2.32,1.45,1.08,1.45,2.32"/>
  <polygon class="cls-2" points="145.37 21.12 145.37 19.67 143.82 19.67 143.82 22.38 145.37 21.12"/>
  <path class="cls-2" d="M153.77,24.59c0-1.89.03-2.99-.94-3.96-.68-.68-1.55-1.05-2.6-1.05s-1.91.37-2.59,1.05c-.97.97-.95,2.06-.95,3.96s-.02,2.99.95,3.96c.68.68,1.54,1.05,2.59,1.05s1.92-.37,2.6-1.05c.97-.97.94-2.06.94-3.96M152.28,24.59c0,1.98-.1,2.53-.58,3.06-.35.37-.89.61-1.47.61s-1.12-.24-1.46-.61c-.48-.53-.58-1.08-.58-3.06s.1-2.53.58-3.06c.35-.37.89-.61,1.46-.61s1.12.23,1.47.61c.48.53.58,1.08.58,3.06"/>
  <path class="cls-2" d="M160.61,28.6l-.97-.93c-.44.48-.79.66-1.34.66s-1-.22-1.3-.62c-.3-.39-.41-.9-.41-1.71s.11-1.31.41-1.7c.31-.4.76-.62,1.3-.62s.9.18,1.34.66l.97-.94c-.67-.71-1.34-.98-2.31-.98-1.58,0-3.13.95-3.13,3.58s1.55,3.6,3.13,3.6c.97,0,1.64-.29,2.31-1"/>
  <path class="cls-2" d="M167.72,29.51v-7.01h-1.41v4.27c0,1.08-.67,1.56-1.46,1.56s-1.41-.47-1.41-1.56v-4.27h-1.41v4.48c0,.79.17,1.45.71,1.98.41.4,1.01.64,1.73.64s1.38-.26,1.87-.79v.71h1.38Z"/>
  <path class="cls-2" d="M182.45,29.51v-4.69c0-1.59-.97-2.41-2.89-2.41-1.16,0-1.86.23-2.52,1.01l.93.87c.39-.5.76-.68,1.54-.68,1.09,0,1.54.43,1.54,1.31v.5h-1.85c-1.6,0-2.42.84-2.42,2.02,0,.6.19,1.13.55,1.51.43.43,1.01.64,1.88.64s1.35-.21,1.87-.72v.64h1.38ZM181.04,26.98c0,.5-.1.83-.3,1.04-.37.36-.78.4-1.31.4-.88,0-1.29-.36-1.29-1s.43-1.01,1.26-1.01h1.65v.57Z"/>
  <path class="cls-2" d="M189.6,28.6l-.97-.93c-.44.48-.79.66-1.34.66s-1-.22-1.3-.62c-.3-.39-.41-.9-.41-1.71s.11-1.31.41-1.7c.31-.4.76-.62,1.3-.62s.9.18,1.34.66l.97-.94c-.66-.71-1.34-.98-2.31-.98-1.58,0-3.13.95-3.13,3.58s1.55,3.6,3.13,3.6c.96,0,1.64-.29,2.31-1"/>
  <path class="cls-2" d="M192.5,22.58h-1.41v7.01h1.41v-7.01ZM192.55,19.71h-1.49v1.49h1.49v-1.49Z"/>
  <path class="cls-2" d="M200.1,26c0-1.18-.17-2.06-.83-2.75-.46-.47-1.15-.83-2.1-.83s-1.63.36-2.09.83c-.66.69-.83,1.58-.83,2.75s.16,2.07.83,2.77c.46.47,1.13.83,2.09.83s1.65-.36,2.1-.83c.66-.69.83-1.58.83-2.77M198.69,26c0,.76-.05,1.49-.48,1.92-.26.26-.62.42-1.04.42s-.76-.15-1.03-.42c-.43-.43-.48-1.16-.48-1.92s.05-1.49.48-1.92c.26-.26.61-.4,1.03-.4s.77.14,1.04.4c.43.43.48,1.16.48,1.92M199.05,18.99h-1.56l-1.04,2.24h1.07l1.54-2.24Z"/>
</svg>