<?xml version="1.0" encoding="utf-8"?>
<!-- Generator: Adobe Illustrator 23.0.3, SVG Export Plug-In . SVG Version: 6.00 Build 0)  -->
<svg version="1.1" id="Capa_2" xmlns="http://www.w3.org/2000/svg" xmlns:xlink="http://www.w3.org/1999/xlink" x="0px" y="0px"
	 viewBox="0 0 329.8 52.5" style="enable-background:new 0 0 329.8 52.5;" xml:space="preserve">
<style type="text/css">
	.st0{fill:#001489;}
</style>
<g>
	<path class="st0" d="M1.5,31.2V15.5h11.1V18H4v4.8h8.2v2.3H4v6.1H1.5z"/>
	<path class="st0" d="M17.3,20.1V26c0,0.9,0.3,1.7,0.8,2.3c0.5,0.6,1.3,0.9,2.2,0.9c0.4,0,0.9-0.1,1.2-0.3c0.4-0.2,0.7-0.4,1-0.7
		c0.3-0.3,0.5-0.7,0.6-1.1s0.2-0.8,0.2-1.3v-5.7h2.3v11.1h-2.1l-0.1-1.6c-0.5,0.6-1.1,1.1-1.7,1.4c-0.6,0.3-1.3,0.4-2.1,0.4
		c-0.7,0-1.3-0.1-1.9-0.4c-0.6-0.2-1.1-0.6-1.5-1c-0.4-0.4-0.7-1-1-1.7c-0.2-0.7-0.3-1.4-0.3-2.2v-5.9H17.3z"/>
	<path class="st0" d="M37.2,31.2v-5.9c0-1-0.3-1.7-0.8-2.3c-0.5-0.6-1.3-0.9-2.2-0.9c-0.5,0-0.9,0.1-1.3,0.3s-0.7,0.4-1,0.7
		c-0.3,0.3-0.5,0.7-0.6,1.1c-0.1,0.4-0.2,0.8-0.2,1.3v5.8h-2.3V20.1h2.1l0.1,1.6c1-1.2,2.3-1.8,3.7-1.8c0.7,0,1.3,0.1,1.9,0.3
		c0.6,0.2,1.1,0.6,1.5,1s0.8,1,1,1.7c0.2,0.7,0.4,1.4,0.4,2.3v5.9H37.2z"/>
	<path class="st0" d="M53.6,15.5v15.7h-2.2l-0.1-1.7c-0.4,0.7-1,1.2-1.7,1.5c-0.7,0.3-1.4,0.5-2.1,0.5c-0.8,0-1.6-0.1-2.2-0.4
		s-1.3-0.6-1.8-1.1s-0.9-1.1-1.2-1.8c-0.3-0.7-0.4-1.5-0.4-2.4c0-0.9,0.1-1.8,0.4-2.5c0.3-0.7,0.7-1.3,1.2-1.8s1.1-0.9,1.8-1.1
		c0.7-0.2,1.4-0.4,2.2-0.4c0.3,0,0.7,0,1.1,0.1c0.4,0.1,0.8,0.2,1.1,0.4c0.4,0.2,0.7,0.4,1,0.6c0.3,0.2,0.5,0.5,0.7,0.9v-6.3H53.6z
		 M47.6,22.1c-0.5,0-1,0.1-1.4,0.2c-0.4,0.2-0.8,0.4-1.1,0.7c-0.3,0.3-0.6,0.7-0.7,1.1c-0.2,0.4-0.3,0.9-0.3,1.5
		c0,0.6,0.1,1.1,0.3,1.5c0.2,0.4,0.4,0.8,0.7,1.1c0.3,0.3,0.7,0.6,1.1,0.7s0.9,0.2,1.4,0.2c0.5,0,0.9-0.1,1.4-0.3
		c0.4-0.2,0.8-0.4,1.1-0.7s0.6-0.7,0.8-1.1c0.2-0.4,0.3-0.9,0.3-1.5c0-0.5-0.1-1-0.3-1.5c-0.2-0.4-0.4-0.8-0.8-1.1
		c-0.3-0.3-0.7-0.6-1.1-0.7C48.5,22.1,48.1,22.1,47.6,22.1z"/>
	<path class="st0" d="M65.5,21.9l0.1-1.7h2.2v11h-2.2l-0.1-1.8c-0.2,0.4-0.4,0.7-0.7,0.9c-0.3,0.3-0.6,0.5-1,0.6
		c-0.4,0.2-0.7,0.3-1.1,0.4c-0.4,0.1-0.7,0.1-1.1,0.1c-0.8,0-1.6-0.1-2.3-0.4c-0.7-0.3-1.3-0.6-1.8-1.1s-0.9-1.1-1.2-1.8
		c-0.3-0.7-0.4-1.6-0.4-2.5c0-0.9,0.1-1.7,0.4-2.5c0.3-0.7,0.7-1.3,1.2-1.8c0.5-0.5,1.1-0.9,1.8-1.1c0.7-0.3,1.4-0.4,2.2-0.4
		s1.5,0.2,2.2,0.5C64.6,20.8,65.2,21.3,65.5,21.9z M61.9,22c-0.5,0-1,0.1-1.4,0.3c-0.4,0.2-0.8,0.4-1.1,0.7
		c-0.3,0.3-0.6,0.7-0.8,1.1s-0.3,1-0.3,1.5c0,0.6,0.1,1.1,0.3,1.5c0.2,0.5,0.4,0.8,0.8,1.2c0.3,0.3,0.7,0.6,1.1,0.7
		c0.4,0.2,0.9,0.3,1.4,0.3c0.8,0,1.5-0.2,2-0.5s0.9-0.8,1.2-1.4c0.3-0.5,0.4-1.1,0.4-1.8c0-0.6-0.1-1.2-0.4-1.8
		c-0.3-0.5-0.7-1-1.2-1.4C63.4,22.2,62.7,22,61.9,22z"/>
	<path class="st0" d="M80.3,29.8c-0.6,0.6-1.3,1.1-2,1.3c-0.7,0.3-1.4,0.4-2.2,0.4c-0.8,0-1.5-0.1-2.3-0.4c-0.7-0.2-1.3-0.6-1.9-1.1
		c-0.5-0.5-0.9-1.1-1.3-1.8c-0.3-0.7-0.5-1.6-0.5-2.5c0-1,0.2-1.8,0.5-2.5c0.3-0.7,0.7-1.3,1.3-1.8c0.5-0.5,1.1-0.9,1.8-1.1
		c0.7-0.2,1.5-0.4,2.3-0.4c0.8,0,1.5,0.1,2.1,0.4c0.6,0.3,1.3,0.7,1.9,1.3l-1.5,1.5c-0.3-0.3-0.7-0.6-1.2-0.8
		c-0.4-0.2-0.9-0.2-1.3-0.2c-0.5,0-1,0.1-1.4,0.3c-0.4,0.2-0.8,0.4-1.1,0.7c-0.3,0.3-0.6,0.7-0.8,1.1c-0.2,0.4-0.3,0.9-0.3,1.5
		c0,0.6,0.1,1.1,0.3,1.5c0.2,0.4,0.4,0.8,0.8,1.1c0.3,0.3,0.7,0.5,1.1,0.7c0.4,0.2,0.9,0.2,1.4,0.2c0.5,0,0.9-0.1,1.4-0.2
		s0.9-0.4,1.2-0.8L80.3,29.8z"/>
	<path class="st0" d="M82.1,16.9c0-0.5,0.1-0.8,0.4-1.1c0.3-0.2,0.6-0.3,1-0.3s0.7,0.1,1,0.3c0.3,0.2,0.4,0.6,0.4,1.1
		c0,0.5-0.1,0.8-0.4,1.1c-0.3,0.2-0.6,0.4-1,0.4s-0.7-0.1-1-0.4C82.2,17.7,82.1,17.4,82.1,16.9z M84.7,20.1v11.1h-2.3V20.1H84.7z"/>
	<path class="st0" d="M92.8,19.9c0.9,0,1.6,0.1,2.3,0.4c0.7,0.3,1.3,0.7,1.8,1.2c0.5,0.5,0.9,1.1,1.2,1.8c0.3,0.7,0.4,1.5,0.4,2.3
		c0,0.8-0.1,1.6-0.4,2.3c-0.3,0.7-0.7,1.3-1.2,1.8c-0.5,0.5-1.1,0.9-1.8,1.2c-0.7,0.3-1.5,0.4-2.4,0.4c-0.9,0-1.7-0.1-2.4-0.4
		c-0.7-0.3-1.3-0.7-1.8-1.2c-0.5-0.5-0.9-1.1-1.1-1.8c-0.3-0.7-0.4-1.5-0.4-2.3c0-0.8,0.1-1.6,0.4-2.3c0.3-0.7,0.7-1.3,1.2-1.8
		c0.5-0.5,1.1-0.9,1.8-1.2C91.2,20.1,91.9,19.9,92.8,19.9z M92.8,22.1c-0.5,0-1,0.1-1.4,0.3c-0.4,0.2-0.8,0.5-1.1,0.8
		c-0.3,0.3-0.5,0.7-0.7,1.2c-0.2,0.4-0.2,0.9-0.2,1.4c0,0.5,0.1,1,0.2,1.4c0.2,0.4,0.4,0.8,0.7,1.1c0.3,0.3,0.6,0.6,1.1,0.8
		c0.4,0.2,0.9,0.3,1.4,0.3c0.5,0,1-0.1,1.4-0.3c0.4-0.2,0.8-0.4,1.1-0.8c0.3-0.3,0.5-0.7,0.7-1.1c0.2-0.4,0.2-0.9,0.2-1.4
		c0-0.5-0.1-1-0.2-1.4c-0.2-0.4-0.4-0.8-0.7-1.2c-0.3-0.3-0.7-0.6-1.1-0.8C93.8,22.2,93.3,22.1,92.8,22.1z M96,15.5l-2.3,3h-2.1
		v-0.1l1.6-2.9L96,15.5L96,15.5z"/>
	<path class="st0" d="M109.4,31.2v-5.9c0-1-0.3-1.7-0.8-2.3c-0.5-0.6-1.3-0.9-2.2-0.9c-0.5,0-0.9,0.1-1.3,0.3s-0.7,0.4-1,0.7
		c-0.3,0.3-0.5,0.7-0.6,1.1c-0.1,0.4-0.2,0.8-0.2,1.3v5.8H101V20.1h2.1l0.1,1.6c1-1.2,2.3-1.8,3.7-1.8c0.7,0,1.3,0.1,1.9,0.3
		c0.6,0.2,1.1,0.6,1.5,1s0.8,1,1,1.7c0.2,0.7,0.4,1.4,0.4,2.3v5.9H109.4z"/>
	<path class="st0" d="M132.2,31.2h-11.6V15.5h11.5V18h-9v4.2h8.6v2.3h-8.6v4.2h9.1V31.2z"/>
	<path class="st0" d="M142.1,22.9c-0.4-0.4-0.9-0.7-1.4-0.8s-1-0.2-1.5-0.2c-0.7,0-1.3,0.1-1.7,0.3c-0.4,0.2-0.6,0.6-0.6,1
		c0,0.5,0.2,0.8,0.7,1c0.4,0.2,1,0.3,1.7,0.4c0.5,0,1,0.1,1.6,0.2c0.6,0.1,1.1,0.3,1.5,0.5c0.5,0.2,0.8,0.6,1.1,1
		c0.3,0.4,0.4,1,0.4,1.7c0,0.5-0.1,1-0.3,1.4s-0.5,0.8-1,1.1c-0.4,0.3-0.9,0.5-1.5,0.7c-0.6,0.2-1.2,0.3-1.9,0.3
		c-0.9,0-1.8-0.1-2.6-0.4c-0.9-0.3-1.7-0.8-2.4-1.6l1.2-1.6c0.5,0.6,1.1,1,1.8,1.2s1.4,0.4,2,0.4c0.3,0,0.5,0,0.8-0.1
		c0.3-0.1,0.5-0.1,0.8-0.2c0.2-0.1,0.4-0.3,0.6-0.5c0.1-0.2,0.2-0.4,0.2-0.7c0-0.5-0.2-0.9-0.6-1.1c-0.4-0.2-1.1-0.4-1.9-0.5
		c-0.5,0-1-0.1-1.6-0.3c-0.5-0.1-1-0.3-1.4-0.6c-0.4-0.2-0.8-0.6-1.1-1c-0.3-0.4-0.4-0.9-0.4-1.5c0-0.6,0.1-1.1,0.4-1.6
		c0.3-0.4,0.6-0.8,1.1-1c0.4-0.3,0.9-0.5,1.5-0.6c0.5-0.1,1.1-0.2,1.6-0.2c0.9,0,1.6,0.1,2.3,0.3c0.7,0.2,1.3,0.6,2,1.2L142.1,22.9z
		"/>
	<path class="st0" d="M149.8,17v3.2h3.2v2h-3.2v5.2c0,0.6,0.1,1,0.4,1.3c0.3,0.3,0.7,0.5,1.2,0.5c0.2,0,0.5,0,0.7-0.1
		c0.2-0.1,0.5-0.2,0.7-0.3l0.7,2c-0.4,0.2-0.8,0.3-1.1,0.4s-0.7,0.1-1.1,0.1c-1.2,0-2.1-0.3-2.8-0.9c-0.6-0.7-1-1.6-1-3v-5.3h-2.1
		v-2h2.1v-3L149.8,17z"/>
	<path class="st0" d="M164.1,21.9l0.1-1.7h2.2v11h-2.2l-0.1-1.8c-0.2,0.4-0.4,0.7-0.7,0.9c-0.3,0.3-0.6,0.5-1,0.6
		c-0.4,0.2-0.7,0.3-1.1,0.4c-0.4,0.1-0.7,0.1-1.1,0.1c-0.8,0-1.6-0.1-2.3-0.4c-0.7-0.3-1.3-0.6-1.8-1.1s-0.9-1.1-1.2-1.8
		c-0.3-0.7-0.4-1.6-0.4-2.5c0-0.9,0.1-1.7,0.4-2.5c0.3-0.7,0.7-1.3,1.2-1.8c0.5-0.5,1.1-0.9,1.8-1.1c0.7-0.3,1.4-0.4,2.2-0.4
		s1.5,0.2,2.2,0.5C163.3,20.8,163.8,21.3,164.1,21.9z M160.6,22c-0.5,0-1,0.1-1.4,0.3c-0.4,0.2-0.8,0.4-1.1,0.7
		c-0.3,0.3-0.6,0.7-0.8,1.1s-0.3,1-0.3,1.5c0,0.6,0.1,1.1,0.3,1.5c0.2,0.5,0.4,0.8,0.8,1.2c0.3,0.3,0.7,0.6,1.1,0.7
		c0.4,0.2,0.9,0.3,1.4,0.3c0.8,0,1.5-0.2,2-0.5s0.9-0.8,1.2-1.4c0.3-0.5,0.4-1.1,0.4-1.8c0-0.6-0.1-1.2-0.4-1.8
		c-0.3-0.5-0.7-1-1.2-1.4C162,22.2,161.3,22,160.6,22z"/>
	<path class="st0" d="M173.2,17v3.2h3.2v2h-3.2v5.2c0,0.6,0.1,1,0.4,1.3s0.7,0.5,1.2,0.5c0.2,0,0.5,0,0.7-0.1
		c0.2-0.1,0.5-0.2,0.7-0.3l0.7,2c-0.4,0.2-0.8,0.3-1.1,0.4s-0.7,0.1-1.1,0.1c-1.2,0-2.1-0.3-2.8-0.9c-0.6-0.7-1-1.6-1-3v-5.3h-2.1
		v-2h2.1v-3L173.2,17z"/>
	<path class="st0" d="M187.5,21.9l0.1-1.7h2.2v11h-2.2l-0.1-1.8c-0.2,0.4-0.4,0.7-0.7,0.9c-0.3,0.3-0.6,0.5-1,0.6
		c-0.4,0.2-0.7,0.3-1.1,0.4s-0.7,0.1-1.1,0.1c-0.8,0-1.6-0.1-2.3-0.4c-0.7-0.3-1.3-0.6-1.8-1.1c-0.5-0.5-0.9-1.1-1.2-1.8
		c-0.3-0.7-0.4-1.6-0.4-2.5c0-0.9,0.1-1.7,0.4-2.5c0.3-0.7,0.7-1.3,1.2-1.8c0.5-0.5,1.1-0.9,1.8-1.1c0.7-0.3,1.4-0.4,2.2-0.4
		s1.5,0.2,2.2,0.5C186.7,20.8,187.2,21.3,187.5,21.9z M183.9,22c-0.5,0-1,0.1-1.4,0.3s-0.8,0.4-1.1,0.7c-0.3,0.3-0.6,0.7-0.8,1.1
		s-0.3,1-0.3,1.5c0,0.6,0.1,1.1,0.3,1.5c0.2,0.5,0.4,0.8,0.8,1.2c0.3,0.3,0.7,0.6,1.1,0.7s0.9,0.3,1.4,0.3c0.8,0,1.5-0.2,2-0.5
		c0.5-0.4,0.9-0.8,1.2-1.4c0.3-0.5,0.4-1.1,0.4-1.8c0-0.6-0.1-1.2-0.4-1.8c-0.3-0.5-0.7-1-1.2-1.4C185.4,22.2,184.7,22,183.9,22z"/>
	<path class="st0" d="M195.4,15.5v15.7H193V15.5H195.4z"/>
	<path class="st0" d="M1.5,47.1l-0.4,2.2h-1.2L1.2,42h3.4c0.6,0,1,0.1,1.4,0.4s0.6,0.6,0.7,0.9c0.1,0.4,0.2,0.8,0.1,1.2
		c-0.1,0.4-0.2,0.8-0.5,1.2c-0.3,0.4-0.6,0.7-1,0.9c-0.4,0.3-0.9,0.4-1.5,0.4H1.5z M1.7,46h2.2c0.3,0,0.6-0.1,0.9-0.2
		c0.2-0.1,0.4-0.3,0.6-0.6c0.2-0.2,0.2-0.5,0.3-0.7c0-0.3,0-0.5,0-0.7s-0.2-0.4-0.4-0.6C5,43,4.8,43,4.4,43H2.2L1.7,46z"/>
	<path class="st0" d="M12.7,47.8h-4l-1,1.5H6.4L11,42h1.3l2,7.4h-1.2L12.7,47.8z M11.5,43.2l-2.2,3.5h3.1L11.5,43.2z"/>
	<path class="st0" d="M21.6,49.3h-1.4l-1.8-2.5h-1.6l-0.5,2.5h-1.2l1.3-7.4c0.6,0,1.1,0,1.7,0c0.6,0,1.1,0,1.7,0
		c0.4,0,0.7,0.1,1,0.2c0.3,0.1,0.5,0.3,0.7,0.5c0.2,0.2,0.3,0.4,0.4,0.7c0.1,0.2,0.1,0.5,0.1,0.8c0,0.3,0,0.6-0.1,0.9
		c-0.1,0.3-0.2,0.6-0.4,0.8c-0.2,0.2-0.4,0.5-0.8,0.6c-0.3,0.2-0.7,0.3-1.1,0.4l1.8,2.4L21.6,49.3z M17.6,43l-0.5,2.7h2.2
		c0.3,0,0.5,0,0.7-0.1c0.2-0.1,0.4-0.2,0.5-0.3c0.1-0.1,0.2-0.3,0.3-0.5c0.1-0.2,0.1-0.4,0.1-0.6c0-0.1,0-0.3-0.1-0.4
		c0-0.1-0.1-0.3-0.2-0.4c-0.1-0.1-0.2-0.2-0.4-0.3C20.2,43.1,20,43,19.8,43H17.6z"/>
	<path class="st0" d="M28.4,47.8h-4l-1,1.5h-1.3l4.6-7.4H28l2,7.4h-1.2L28.4,47.8z M27.2,43.2L25,46.7h3.1L27.2,43.2z"/>
	<path class="st0" d="M36.1,42L35,48.2h3.9l-0.2,1.1h-5.1l1.3-7.4H36.1z"/>
	<path class="st0" d="M45.2,47.8h-4l-1,1.5H39l4.6-7.4h1.3l2,7.4h-1.2L45.2,47.8z M44.1,43.2l-2.2,3.5H45L44.1,43.2z"/>
	<path class="st0" d="M50.5,49.3l1.3-7.4H57L56.8,43h-4l-0.4,2.3h3.8L56,46.4h-3.8l-0.5,2.9H50.5z"/>
	<path class="st0" d="M61.8,41.8c0.5,0,1,0.1,1.4,0.3s0.7,0.4,1,0.7c0.3,0.3,0.5,0.6,0.6,1c0.1,0.4,0.2,0.8,0.2,1.2
		c0,0.6-0.1,1.1-0.3,1.6c-0.2,0.5-0.5,1-0.8,1.4c-0.4,0.4-0.8,0.8-1.4,1c-0.6,0.3-1.2,0.4-1.9,0.4c-0.6,0-1-0.1-1.4-0.3
		c-0.4-0.2-0.7-0.4-1-0.7s-0.5-0.6-0.6-1c-0.1-0.4-0.2-0.8-0.2-1.2c0-0.6,0.1-1.2,0.3-1.8c0.2-0.5,0.5-1,1-1.4
		c0.4-0.4,0.9-0.7,1.4-1C60.6,41.9,61.1,41.8,61.8,41.8z M58.5,46.1c0,0.3,0,0.6,0.1,0.8c0.1,0.3,0.2,0.5,0.4,0.7
		c0.2,0.2,0.4,0.4,0.7,0.5c0.3,0.1,0.6,0.2,1,0.2c0.5,0,1-0.1,1.4-0.3c0.4-0.2,0.7-0.4,1-0.7c0.3-0.3,0.5-0.6,0.6-1
		c0.1-0.4,0.2-0.8,0.2-1.1c0-0.3,0-0.6-0.1-0.8s-0.2-0.5-0.4-0.7c-0.2-0.2-0.4-0.4-0.7-0.5c-0.3-0.1-0.6-0.2-1-0.2
		c-0.5,0-0.9,0.1-1.3,0.3c-0.4,0.2-0.7,0.4-1,0.7c-0.3,0.3-0.5,0.6-0.6,1S58.5,45.7,58.5,46.1z"/>
	<path class="st0" d="M72,49.3h-1.4l-1.8-2.5h-1.6l-0.5,2.5h-1.2l1.3-7.4c0.6,0,1.1,0,1.7,0c0.6,0,1.1,0,1.7,0c0.4,0,0.7,0.1,1,0.2
		c0.3,0.1,0.5,0.3,0.7,0.5c0.2,0.2,0.3,0.4,0.4,0.7c0.1,0.2,0.1,0.5,0.1,0.8c0,0.3,0,0.6-0.1,0.9c-0.1,0.3-0.2,0.6-0.4,0.8
		c-0.2,0.2-0.4,0.5-0.8,0.6c-0.3,0.2-0.7,0.3-1.1,0.4l1.8,2.4L72,49.3z M68,43l-0.5,2.7h2.2c0.3,0,0.5,0,0.7-0.1
		c0.2-0.1,0.4-0.2,0.5-0.3c0.1-0.1,0.2-0.3,0.3-0.5c0.1-0.2,0.1-0.4,0.1-0.6c0-0.1,0-0.3-0.1-0.4c0-0.1-0.1-0.3-0.2-0.4
		c-0.1-0.1-0.2-0.2-0.4-0.3c-0.2-0.1-0.3-0.1-0.5-0.1H68z"/>
	<path class="st0" d="M80.7,43.7l-3.1,3.5h-0.3l-1.9-3.5l-1,5.6h-1.2l1.3-7.4h1.4l1.8,3.4l3-3.4h1.4l-1.3,7.4h-1.2L80.7,43.7z"/>
	<path class="st0" d="M88.2,47.8h-4l-1,1.5h-1.3l4.6-7.4h1.3l2,7.4h-1.2L88.2,47.8z M87,43.2l-2.2,3.5h3.1L87,43.2z"/>
	<path class="st0" d="M97.2,48.4c-0.2,0.2-0.5,0.4-0.7,0.5c-0.2,0.1-0.5,0.2-0.7,0.3c-0.2,0.1-0.5,0.1-0.7,0.2
		c-0.3,0-0.5,0.1-0.8,0.1c-0.6,0-1.1-0.1-1.5-0.3c-0.4-0.2-0.8-0.4-1-0.7s-0.5-0.6-0.6-1c-0.1-0.4-0.2-0.8-0.2-1.2
		c0-0.5,0.1-1.1,0.3-1.6c0.2-0.5,0.5-1,0.9-1.4c0.4-0.4,0.9-0.8,1.5-1s1.2-0.4,2-0.4c0.5,0,0.9,0.1,1.4,0.3c0.4,0.2,0.8,0.4,1.1,0.8
		l-0.9,0.8c-0.2-0.3-0.5-0.5-0.8-0.6c-0.3-0.1-0.6-0.2-1-0.2c-0.5,0-0.9,0.1-1.3,0.2c-0.4,0.2-0.7,0.4-1,0.6
		c-0.3,0.3-0.5,0.5-0.6,0.9s-0.3,0.7-0.3,1s-0.1,0.7,0,1c0,0.3,0.2,0.6,0.3,0.9s0.4,0.5,0.7,0.6s0.7,0.2,1.2,0.2
		c0.3,0,0.7-0.1,1.1-0.2s0.7-0.3,1-0.6L97.2,48.4z"/>
	<path class="st0" d="M98.2,49.3l1.3-7.4h1.2l-1.3,7.4H98.2z"/>
	<path class="st0" d="M105.8,41.8c0.5,0,1,0.1,1.4,0.3s0.7,0.4,1,0.7c0.3,0.3,0.5,0.6,0.6,1c0.1,0.4,0.2,0.8,0.2,1.2
		c0,0.6-0.1,1.1-0.3,1.6c-0.2,0.5-0.5,1-0.8,1.4c-0.4,0.4-0.8,0.8-1.4,1c-0.6,0.3-1.2,0.4-1.9,0.4c-0.6,0-1-0.1-1.4-0.3
		c-0.4-0.2-0.7-0.4-1-0.7s-0.5-0.6-0.6-1c-0.1-0.4-0.2-0.8-0.2-1.2c0-0.6,0.1-1.2,0.3-1.8c0.2-0.5,0.5-1,1-1.4
		c0.4-0.4,0.9-0.7,1.4-1C104.6,41.9,105.2,41.8,105.8,41.8z M102.5,46.1c0,0.3,0,0.6,0.1,0.8c0.1,0.3,0.2,0.5,0.4,0.7
		c0.2,0.2,0.4,0.4,0.7,0.5s0.6,0.2,1,0.2c0.5,0,1-0.1,1.4-0.3s0.7-0.4,1-0.7c0.3-0.3,0.5-0.6,0.6-1c0.1-0.4,0.2-0.8,0.2-1.2
		c0-0.3,0-0.6-0.1-0.8c-0.1-0.3-0.2-0.5-0.4-0.7c-0.2-0.2-0.4-0.4-0.7-0.5c-0.3-0.1-0.6-0.2-1-0.2c-0.5,0-0.9,0.1-1.3,0.3
		c-0.4,0.2-0.7,0.4-1,0.7c-0.3,0.3-0.5,0.6-0.6,1S102.5,45.7,102.5,46.1z M107.7,39.7l-1.3,1.4h-1l0-0.1l1-1.4L107.7,39.7
		L107.7,39.7z"/>
	<path class="st0" d="M115.2,47.4l0.9-5.4h1.2l-1.3,7.4h-0.9l-3.2-5.4l-0.9,5.4h-1.2L111,42h0.9L115.2,47.4z"/>
	<path class="st0" d="M125.9,49.3h-5.4c0.2-1.2,0.4-2.5,0.6-3.7c0.2-1.2,0.4-2.4,0.6-3.7h5.2l-0.2,1.1h-4l-0.4,2h3.8l-0.2,1.1h-3.8
		l-0.4,2h4.3L125.9,49.3z"/>
	<path class="st0" d="M132.8,47.4l0.9-5.4h1.2l-1.3,7.4h-0.9l-3.2-5.4l-0.9,5.4h-1.2l1.3-7.4h0.9L132.8,47.4z"/>
	<path class="st0" d="M143.5,49.3h-5.4c0.2-1.2,0.4-2.5,0.6-3.7c0.2-1.2,0.4-2.4,0.6-3.7h5.2l-0.2,1.1h-4l-0.4,2h3.8l-0.2,1.1h-3.8
		l-0.4,2h4.3L143.5,49.3z"/>
	<path class="st0" d="M147.3,42l-1.1,6.3h3.9l-0.2,1.1h-5.1l1.3-7.4H147.3z"/>
	<path class="st0" d="M159.1,49.3h-5.4c0.2-1.2,0.4-2.5,0.6-3.7c0.2-1.2,0.4-2.4,0.6-3.7h5.2l-0.2,1.1h-4l-0.4,2h3.8l-0.2,1.1h-3.8
		l-0.4,2h4.3L159.1,49.3z"/>
	<path class="st0" d="M167.9,43.7l-3.1,3.5h-0.3l-1.9-3.5l-1,5.6h-1.2l1.3-7.4h1.4l1.8,3.4l3-3.4h1.4l-1.3,7.4h-1.2L167.9,43.7z"/>
	<path class="st0" d="M171.5,47.1l-0.4,2.2h-1.2l1.3-7.4h3.4c0.6,0,1,0.1,1.4,0.4c0.3,0.3,0.6,0.6,0.7,0.9s0.2,0.8,0.1,1.2
		c-0.1,0.4-0.2,0.8-0.5,1.2c-0.3,0.4-0.6,0.7-1,0.9c-0.4,0.3-0.9,0.4-1.5,0.4H171.5z M171.7,46h2.2c0.3,0,0.6-0.1,0.9-0.2
		c0.2-0.1,0.4-0.3,0.6-0.6c0.2-0.2,0.2-0.5,0.3-0.7c0-0.3,0-0.5,0-0.7c-0.1-0.2-0.2-0.4-0.4-0.6c-0.2-0.1-0.5-0.2-0.8-0.2h-2.2
		L171.7,46z"/>
	<path class="st0" d="M179.7,42l-1.1,6.3h3.9l-0.2,1.1h-5.1l1.3-7.4H179.7z"/>
	<path class="st0" d="M188.8,49.3h-5.4c0.2-1.2,0.4-2.5,0.6-3.7c0.2-1.2,0.4-2.4,0.6-3.7h5.2l-0.2,1.1h-4l-0.4,2h3.8l-0.2,1.1h-3.8
		l-0.4,2h4.3L188.8,49.3z"/>
	<path class="st0" d="M194.8,41.8c0.5,0,1,0.1,1.4,0.3s0.7,0.4,1,0.7s0.5,0.6,0.6,1c0.1,0.4,0.2,0.8,0.2,1.2c0,0.6-0.1,1.1-0.3,1.6
		c-0.2,0.5-0.5,1-0.8,1.4c-0.4,0.4-0.8,0.8-1.4,1c-0.6,0.3-1.2,0.4-1.9,0.4c-0.6,0-1-0.1-1.4-0.3c-0.4-0.2-0.7-0.4-1-0.7
		s-0.5-0.6-0.6-1c-0.1-0.4-0.2-0.8-0.2-1.2c0-0.6,0.1-1.2,0.3-1.8s0.5-1,1-1.4c0.4-0.4,0.9-0.7,1.4-1
		C193.6,41.9,194.2,41.8,194.8,41.8z M191.5,46.1c0,0.3,0,0.6,0.1,0.8c0.1,0.3,0.2,0.5,0.4,0.7s0.4,0.4,0.7,0.5
		c0.3,0.1,0.6,0.2,1,0.2c0.5,0,1-0.1,1.4-0.3c0.4-0.2,0.7-0.4,1-0.7c0.3-0.3,0.5-0.6,0.6-1c0.1-0.4,0.2-0.8,0.2-1.1
		c0-0.3,0-0.6-0.1-0.8s-0.2-0.5-0.4-0.7c-0.2-0.2-0.4-0.4-0.7-0.5c-0.3-0.1-0.6-0.2-1-0.2c-0.5,0-0.9,0.1-1.3,0.3
		c-0.4,0.2-0.7,0.4-1,0.7c-0.3,0.3-0.5,0.6-0.6,1S191.5,45.7,191.5,46.1z"/>
</g>
<g>
	<g>
		<defs>
			<path id="SVGID_1_" d="M219.5,41.2c0.3-1.7,0.9-3.8,2.3-6.2c1.3-2.5,2.9-4.4,4.6-6.5c1.8-1.9,3.3-3.1,4.5-3.7
				c1.1-0.5,1.7-0.2,1.6,1c0,1.6,0,3.2,0,5c-2.6,2.7-5.1,5.5-7.5,8.6c-1.9,2.4-3.3,3.7-4.3,4c-0.2,0-0.3,0.1-0.4,0.1
				C219.5,43.5,219.3,42.7,219.5,41.2 M255,15.7c2-0.7,3.5-0.4,4.3,0.8c1.1,1.7,2.2,3.4,3.5,5.5c-4.2,3.3-8.1,6.9-12.2,10.8
				c-3.2,3.1-5.7,4.8-7.8,5.3c0,0-0.1,0-0.1,0c0,0-0.1,0-0.1,0c-1.1,0.2-1.8,0-2.3-0.4c0,0,0,0,0,0c-0.6-0.5-0.9-1.2-1.1-2.2
				c-0.4-2.4-0.8-4.4-1-6.5c3.1-3.2,6.3-5.9,9.5-8.7c0.8-0.7,1.7-1.3,2.4-1.9c0.9-0.7,1.8-1.2,2.7-1.6c0.8-0.4,1.4-0.7,2.1-0.9
				c0,0,0.1,0,0.1,0C254.9,15.8,254.9,15.8,255,15.7C254.9,15.8,255,15.7,255,15.7 M300.8,5.4c4.4-0.6,7.8-0.2,10.8,1.2
				c3.2,1.6,4.6,3.8,4.1,7.4c-0.5,3.7-2.9,7.1-7.6,10.9c-4.7,3.6-9.8,5.7-15.4,6.2c-4.5,0.4-8.1-1-10.7-3.7c-2.7-3-5.1-5.5-7.4-7.9
				c5.1-3.7,9.8-6.9,14.5-9.8l0,0.1C293.4,7.2,297.1,5.9,300.8,5.4 M302.9,0.4c-5.7,0.9-11.3,2.5-17.8,6.2c-4.5,2.6-9.1,5.5-14,9
				c-1.6-1.7-3.1-3.2-4.5-4.7c-0.7-0.7-1.4-1-2.5-1.3c-0.2,0-0.3,0-0.5-0.1c-0.2,0-0.4-0.1-0.6-0.1c-1.1,0-2.5,0.3-4.1,0.8
				c-1.1,0.4-2.1,0.8-3.2,1.3c-1.6,0.8-3.3,1.7-5.1,3c-1.1,0.7-2.2,1.5-3.3,2.5c-3.2,2.6-6.3,5.3-9.5,8.4c-0.1-1.6-0.3-3.1-0.3-4.6
				c-0.1-1.8-1.1-2-3-1.2c-2.1,1-4.5,2.7-7.4,5.9c-2.9,3-5.3,6.3-7.4,10.3c-2.2,3.9-3.2,7.4-3.6,10.4c-0.4,3.2,0.2,4.7,1.9,4.5
				c1.6-0.2,3.7-2.4,6.9-6.6c2.6-3.3,5.2-6.4,8-9.5c0.2,2.4,0.4,4.9,0.8,7.6c0.1,1.1,0.4,2.1,0.8,3c0,0,0,0.1,0,0.1c0,0,0,0,0,0
				c0.5,1,1,1.6,1.8,2.1c0.7,0.4,1.7,0.5,2.9,0.5c1-0.2,2.1-0.5,3.2-1c1.7-0.9,3.6-2.2,5.8-4.1c1.4-1.1,2.7-2.4,4.2-3.9
				c4.5-4.5,8.9-8.5,13.6-12.4c1.9,2.9,4,6.1,6.4,9.7c3.6,5.4,9.2,8.4,17.3,8.3c4.8-0.1,9.6-1.1,14.4-3c4.9-2,9.5-4.7,13.8-8.2
				c8.7-7.2,12.2-13.9,12.1-20c-0.1-5.9-3.6-9-9.2-11.3c-2.7-1-5.4-1.6-8.4-1.8c-1-0.1-1.9-0.1-2.9-0.1C307.3,0,305.2,0.2,302.9,0.4
				"/>
		</defs>
		<use xlink:href="#SVGID_1_"  style="overflow:visible;fill:#F2A900;"/>
		<clipPath id="SVGID_2_">
			<use xlink:href="#SVGID_1_"  style="overflow:visible;"/>
		</clipPath>
	</g>
</g>
<text transform="matrix(1 0 0 1 196.0488 -64.1807)" style="font-family:'NexaXBoldItalic'; font-size:10.5127px;">Lorem ipsum</text>
</svg>
